<?xml version="1.0" encoding="UTF-8" standalone="no"?>
<svg xmlns:xlink="http://www.w3.org/1999/xlink" height="16.8px" width="39.55px" xmlns="http://www.w3.org/2000/svg">
  <g transform="matrix(1.0, 0.0, 0.0, 1.0, 19.8, 11.35)">
    <use data-characterId="49" height="18.65" transform="matrix(0.8218, 0.0, 0.0, 0.8218, 4.5896, -10.8276)" width="9.35" xlink:href="#sprite0"/>
    <use data-characterId="48" height="9.95" transform="matrix(0.6355, 0.0, 0.0, 0.6355, -19.7956, -8.0456)" width="9.85" xlink:href="#sprite2"/>
    <use data-characterId="46" height="10.0" transform="matrix(0.499, 0.0, 0.0, 0.499, -2.045, -5.445)" width="10.0" xlink:href="#sprite1"/>
    <use data-characterId="46" height="10.0" transform="matrix(0.6052, 0.0, 0.0, 0.6052, 13.5738, -7.2262)" width="10.0" xlink:href="#sprite1"/>
    <use data-characterId="46" height="10.0" transform="matrix(0.81, 0.0, 0.0, 0.81, -12.2999, -8.6999)" width="10.0" xlink:href="#sprite1"/>
  </g>
  <defs>
    <g id="sprite0" transform="matrix(1.0, 0.0, 0.0, 1.0, 4.15, 27.9)">
      <use data-characterId="46" height="10.0" transform="matrix(0.9, 0.0, 0.0, 0.9, -3.95, -18.25)" width="10.0" xlink:href="#sprite1"/>
    </g>
    <g id="sprite1" transform="matrix(1.0, 0.0, 0.0, 1.0, 5.0, 5.0)">
      <use data-characterId="45" height="10.0" transform="matrix(1.0, 0.0, 0.0, 1.0, -5.0, -5.0)" width="10.0" xlink:href="#shape0"/>
    </g>
    <g id="shape0" transform="matrix(1.0, 0.0, 0.0, 1.0, 5.0, 5.0)">
      <path d="M-1.55 -3.4 Q-1.1 -3.35 -0.9 -3.05 -0.7 -2.7 -0.9 -2.3 L-1.5 -1.65 Q-1.95 -1.4 -2.35 -1.45 -2.8 -1.5 -3.0 -1.8 -3.2 -2.15 -3.0 -2.55 L-2.4 -3.2 -1.55 -3.4" fill="#ffffff" fill-opacity="0.65882355" fill-rule="evenodd" stroke="none"/>
      <path d="M3.55 3.55 Q2.05 5.0 0.0 5.0 -2.1 5.0 -3.55 3.55 -5.0 2.1 -5.0 0.0 -5.0 -2.05 -3.55 -3.5 -2.1 -5.0 0.0 -5.0 2.05 -5.0 3.55 -3.5 5.0 -2.05 5.0 0.0 5.0 2.1 3.55 3.55 M3.3 3.35 Q4.65 1.95 4.7 0.0 4.65 -1.95 3.3 -3.3 1.9 -4.65 0.0 -4.65 -1.95 -4.65 -3.3 -3.3 -4.7 -1.95 -4.7 0.0 -4.7 1.95 -3.3 3.35 -1.95 4.7 0.0 4.7 1.9 4.7 3.3 3.35" fill="#ffff99" fill-opacity="0.65882355" fill-rule="evenodd" stroke="none"/>
      <path d="M2.7 -3.2 Q3.95 -2.0 3.95 -0.25 3.95 1.5 2.7 2.75 1.45 3.95 -0.25 3.95 -2.05 3.95 -3.25 2.75 L-4.2 1.4 Q-3.9 2.35 -3.1 3.1 -1.85 4.4 0.0 4.4 1.8 4.4 3.1 3.1 4.35 1.8 4.35 0.0 4.35 -1.8 3.1 -3.05 2.3 -3.85 1.35 -4.15 L2.7 -3.2 M3.3 3.35 Q1.9 4.7 0.0 4.7 -1.95 4.7 -3.3 3.35 -4.7 1.95 -4.7 0.0 -4.7 -1.95 -3.3 -3.3 -1.95 -4.65 0.0 -4.65 1.9 -4.65 3.3 -3.3 4.65 -1.95 4.7 0.0 4.65 1.95 3.3 3.35 M-1.55 -3.4 L-2.4 -3.2 -3.0 -2.55 Q-3.2 -2.15 -3.0 -1.8 -2.8 -1.5 -2.35 -1.45 -1.95 -1.4 -1.5 -1.65 L-0.9 -2.3 Q-0.7 -2.7 -0.9 -3.05 -1.1 -3.35 -1.55 -3.4" fill="#ffff33" fill-opacity="0.65882355" fill-rule="evenodd" stroke="none"/>
      <path d="M2.7 -3.2 L1.35 -4.15 Q2.3 -3.85 3.1 -3.05 4.35 -1.8 4.35 0.0 4.35 1.8 3.1 3.1 1.8 4.4 0.0 4.4 -1.85 4.4 -3.1 3.1 -3.9 2.35 -4.2 1.4 L-3.25 2.75 Q-2.05 3.95 -0.25 3.95 1.45 3.95 2.7 2.75 3.95 1.5 3.95 -0.25 3.95 -2.0 2.7 -3.2" fill="#ffcc33" fill-opacity="0.65882355" fill-rule="evenodd" stroke="none"/>
    </g>
    <g id="sprite2" transform="matrix(1.0, 0.0, 0.0, 1.0, 4.95, 4.95)">
      <use data-characterId="47" height="9.95" transform="matrix(1.0, 0.0, 0.0, 1.0, -4.95, -4.95)" width="9.85" xlink:href="#shape1"/>
    </g>
    <g id="shape1" transform="matrix(1.0, 0.0, 0.0, 1.0, 4.95, 4.95)">
      <path d="M-3.3 3.35 Q-2.1 4.55 -0.45 4.7 L-0.45 5.0 Q-2.25 4.85 -3.55 3.55 -4.65 2.45 -4.95 0.95 L-4.6 0.95 Q-4.35 2.3 -3.3 3.35 M-0.45 -4.95 L-0.45 -4.65 Q-2.1 -4.5 -3.3 -3.3 -4.2 -2.4 -4.5 -1.3 L-4.85 -1.3 Q-4.55 -2.55 -3.55 -3.5 -2.25 -4.85 -0.45 -4.95 M0.45 4.7 Q2.1 4.55 3.3 3.35 4.35 2.3 4.6 0.95 L4.9 0.95 Q4.65 2.45 3.55 3.55 2.25 4.85 0.45 5.0 L0.45 4.7 M4.85 -1.3 L4.5 -1.3 Q4.2 -2.4 3.3 -3.3 2.1 -4.5 0.45 -4.65 L0.45 -4.95 Q2.25 -4.8 3.55 -3.5 4.5 -2.55 4.85 -1.3" fill="#66ff99" fill-opacity="0.19607843" fill-rule="evenodd" stroke="none"/>
    </g>
  </defs>
</svg>
