<?xml version="1.0" encoding="UTF-8" standalone="no"?>
<svg xmlns:xlink="http://www.w3.org/1999/xlink" height="125.25px" width="106.0px" xmlns="http://www.w3.org/2000/svg">
  <g transform="matrix(1.0, 0.0, 0.0, 1.0, 53.0, 62.6)">
    <use data-characterId="118" height="125.25" transform="matrix(0.9406, 0.0, 0.0, 0.9406, -23.0924, -58.8833)" width="49.15" xlink:href="#sprite0"/>
  </g>
  <defs>
    <g id="sprite0" transform="matrix(1.0, 0.0, 0.0, 1.0, 24.55, 62.6)">
      <use data-characterId="117" height="125.25" transform="matrix(1.0, 0.0, 0.0, 1.0, -24.55, -62.6)" width="49.15" xlink:href="#shape0"/>
    </g>
    <g id="shape0" transform="matrix(1.0, 0.0, 0.0, 1.0, 24.55, 62.6)">
      <path d="M8.4 -40.4 L9.55 -35.3 Q8.25 -33.9 6.05 -33.1 L-8.5 -32.45 Q-9.6 -32.45 -11.2 -33.45 L-10.4 -38.3 8.4 -40.4" fill="#474747" fill-rule="evenodd" stroke="none"/>
      <path d="M9.55 -35.3 Q13.65 -39.35 15.85 -44.9 16.4 -39.05 14.2 -33.5 L8.65 -33.2 6.05 -33.1 Q8.25 -33.9 9.55 -35.3 M-11.15 -32.3 L-16.3 -32.05 Q-18.65 -36.05 -19.3 -41.1 -15.3 -36.05 -11.2 -33.45 -9.6 -32.45 -8.5 -32.45 L-11.15 -32.3 M-10.4 -38.3 L-7.3 -56.85 -2.75 -52.8 3.7 -61.6 8.4 -40.4 -10.4 -38.3" fill="#333333" fill-rule="evenodd" stroke="none"/>
      <path d="M8.65 -33.2 L23.6 55.05 0.1 61.65 -23.55 54.6 -11.15 -32.3 -8.5 -32.45 6.05 -33.1 8.65 -33.2 M-2.4 -14.2 L0.05 -12.8 Q2.45 -7.55 8.35 -5.2 2.45 -7.55 0.05 -12.8 L-2.4 -14.2 -2.5 -14.15 -2.4 -14.2 -1.25 -25.3 -2.4 -14.2 9.6 -20.35 -2.4 -14.2 M-5.25 10.15 Q-5.6 2.45 -2.5 -14.15 -5.6 2.45 -5.25 10.15 L-5.15 10.15 -5.25 10.15 -8.65 8.2 Q-11.65 15.25 -14.75 31.2 -16.25 39.15 -17.15 45.7 -15.0 39.8 -12.1 33.45 -6.25 20.8 -2.55 18.9 6.35 22.25 17.9 47.3 15.05 26.8 4.25 6.9 L-0.35 9.95 -5.15 10.15 -0.35 9.95 4.25 6.9 Q15.05 26.8 17.9 47.3 6.35 22.25 -2.55 18.9 -6.25 20.8 -12.1 33.45 -15.0 39.8 -17.15 45.7 -16.25 39.15 -14.75 31.2 -11.65 15.25 -8.65 8.2 L-5.25 10.15 M17.9 47.3 Q18.9 51.2 16.4 52.65 18.9 51.2 17.9 47.3 M9.6 -11.7 Q5.05 -10.85 0.05 -12.8 5.05 -10.85 9.6 -11.7 M0.45 2.8 Q0.9 1.35 2.3 1.9 3.85 2.7 4.55 3.7 5.5 5.15 4.3 6.9 L4.25 6.9 4.3 6.9 Q5.5 5.15 4.55 3.7 3.85 2.7 2.3 1.9 0.9 1.35 0.45 2.8 M-2.5 -14.15 L-3.7 -13.2 Q-5.7 -8.15 -10.2 -8.6 -5.7 -8.15 -3.7 -13.2 L-10.55 -12.9 -3.7 -13.2 -2.5 -14.15 -10.85 -19.1 -2.5 -14.15 M-16.4 54.2 Q-17.0 54.45 -17.5 52.5 -18.05 48.55 -17.15 45.7 -18.05 48.55 -17.5 52.5 -17.0 54.45 -16.4 54.2 M-6.5 4.7 Q-8.05 3.45 -8.65 5.05 -9.65 6.6 -8.65 8.2 -9.65 6.6 -8.65 5.05 -8.05 3.45 -6.5 4.7" fill="#ae9ea3" fill-rule="evenodd" stroke="none"/>
      <path d="M8.4 -40.4 L-10.4 -38.3" fill="none" stroke="#000000" stroke-linecap="round" stroke-linejoin="round" stroke-width="1.0"/>
      <path d="M8.4 -40.4 L9.55 -35.3 Q13.65 -39.35 15.85 -44.9 16.4 -39.05 14.2 -33.5 L8.65 -33.2 23.6 55.05 0.1 61.65 -23.55 54.6 -11.15 -32.3 -16.3 -32.05 Q-18.65 -36.05 -19.3 -41.1 -15.3 -36.05 -11.2 -33.45 L-10.4 -38.3 -7.3 -56.85 -2.75 -52.8 3.7 -61.6 8.4 -40.4 M9.55 -35.3 Q8.25 -33.9 6.05 -33.1 L8.65 -33.2 M-8.5 -32.45 L-11.15 -32.3 M-11.2 -33.45 Q-9.6 -32.45 -8.5 -32.45 L6.05 -33.1" fill="none" stroke="#000000" stroke-linecap="round" stroke-linejoin="round" stroke-width="2.0"/>
      <path d="M8.35 -5.2 Q2.45 -7.55 0.05 -12.8 L-2.4 -14.2 M-5.25 10.15 L-5.15 10.15 M4.25 6.9 L4.3 6.9 Q5.5 5.15 4.55 3.7 3.85 2.7 2.3 1.9 0.9 1.35 0.45 2.8 M0.05 -12.8 Q5.05 -10.85 9.6 -11.7 M-8.65 8.2 Q-11.65 15.25 -14.75 31.2 -16.25 39.15 -17.15 45.7 -15.0 39.8 -12.1 33.45 -6.25 20.8 -2.55 18.9 6.35 22.25 17.9 47.3 15.05 26.8 4.25 6.9 M16.4 52.65 Q18.9 51.2 17.9 47.3 M-10.2 -8.6 Q-5.7 -8.15 -3.7 -13.2 L-10.55 -12.9 M-3.7 -13.2 L-2.5 -14.15 M-8.65 8.2 Q-9.65 6.6 -8.65 5.05 -8.05 3.45 -6.5 4.7 M-17.15 45.7 Q-18.05 48.55 -17.5 52.5 -17.0 54.45 -16.4 54.2" fill="none" stroke="#000000" stroke-linecap="round" stroke-linejoin="round" stroke-width="0.75"/>
      <path d="M-2.4 -14.2 L-2.5 -14.15 -10.85 -19.1 M-2.4 -14.2 L9.6 -20.35" fill="none" stroke="#000000" stroke-linecap="round" stroke-linejoin="round" stroke-width="3.5"/>
      <path d="M-2.4 -14.2 L-1.25 -25.3" fill="none" stroke="#000000" stroke-linecap="round" stroke-linejoin="round" stroke-width="1.5"/>
      <path d="M-2.5 -14.15 Q-5.6 2.45 -5.25 10.15 L-8.65 8.2 M-5.15 10.15 L-0.35 9.95 4.25 6.9" fill="none" stroke="#000000" stroke-linecap="round" stroke-linejoin="round" stroke-width="1.25"/>
    </g>
  </defs>
</svg>
