<?xml version="1.0" encoding="UTF-8" standalone="no"?>
<svg xmlns:xlink="http://www.w3.org/1999/xlink" height="30.05px" width="80.55px" xmlns="http://www.w3.org/2000/svg">
  <g transform="matrix(1.0, 0.0, 0.0, 1.0, 40.3, 15.0)">
    <use data-characterId="73" height="30.05" transform="matrix(1.0, 0.0, 0.0, 1.0, -40.3, -15.0)" width="80.55" xlink:href="#shape0"/>
  </g>
  <defs>
    <g id="shape0" transform="matrix(1.0, 0.0, 0.0, 1.0, 40.3, 15.0)">
      <path d="M36.6 -11.4 L36.7 -11.3 Q40.2 -7.75 40.25 -2.65 L40.25 3.0 40.15 4.35 Q39.6 8.45 36.6 11.45 L36.55 11.5 Q32.9 15.05 27.85 15.05 L-27.9 15.05 Q-33.05 15.05 -36.65 11.45 -39.7 8.4 -40.2 4.35 L-40.3 3.0 -40.3 -2.65 Q-40.3 -7.7 -36.7 -11.4 L-36.65 -11.4 Q-32.95 -15.05 -27.9 -15.0 L27.85 -15.0 Q32.9 -15.05 36.6 -11.4" fill="#000000" fill-opacity="0.3529412" fill-rule="evenodd" stroke="none"/>
    </g>
  </defs>
</svg>
