<?xml version="1.0" encoding="UTF-8" standalone="no"?>
<svg xmlns:xlink="http://www.w3.org/1999/xlink" height="81.0px" width="81.25px" xmlns="http://www.w3.org/2000/svg">
  <g transform="matrix(1.0, 0.0, 0.0, 1.0, 40.3, 40.0)">
    <use data-characterId="113" height="57.05" transform="matrix(0.5247, 0.0, 0.0, 0.5247, -21.1456, -14.9541)" width="80.65" xlink:href="#sprite0"/>
  </g>
  <defs>
    <g id="sprite0" transform="matrix(1.0, 0.0, 0.0, 1.0, 40.3, 28.5)">
      <use data-characterId="112" height="57.05" transform="matrix(1.0, 0.0, 0.0, 1.0, -40.3, -28.5)" width="80.65" xlink:href="#shape0"/>
    </g>
    <g id="shape0" transform="matrix(1.0, 0.0, 0.0, 1.0, 40.3, 28.5)">
      <path d="M13.9 -16.15 L13.3 -19.9 Q12.5 -20.6 11.6 -20.05 L11.45 -19.75 12.9 -17.3 10.3 -16.15 8.95 -22.25 Q17.3 -26.0 25.15 -21.15 L25.3 -21.35 Q17.6 -28.4 8.0 -23.2 1.45 -27.0 -5.5 -24.0 -14.6 -26.45 -22.75 -22.5 -19.2 -21.35 -14.85 -23.0 -11.55 -24.2 -8.05 -23.75 -6.35 -23.65 -6.15 -22.55 L-5.95 -22.5 Q-3.15 -23.7 0.15 -23.9 3.85 -24.2 6.9 -22.1 10.4 -19.5 7.8 -16.0 6.45 -14.2 4.15 -13.7 0.65 -13.05 -2.65 -14.2 -5.2 -15.05 -7.05 -16.85 L-10.8 -17.4 -9.2 -19.95 -7.25 -19.95 Q-8.5 -20.55 -9.75 -21.25 L-12.1 -17.0 Q-17.25 -13.75 -29.0 -11.45 -17.25 -13.75 -12.1 -17.0 L-10.9 -15.75 -8.05 -15.5 Q-2.7 -11.3 4.4 -12.8 6.6 -13.25 8.7 -14.85 L13.9 -16.15 Q17.4 -12.45 30.1 -11.45 17.4 -12.45 13.9 -16.15 M34.25 -11.35 L30.1 -11.45 21.7 -8.7 15.85 -5.9 Q12.45 -4.3 8.85 -3.5 L3.05 -3.65 -3.15 -5.35 -9.35 -7.35 -13.35 -8.8 -17.45 -10.0 -23.85 -10.9 -29.0 -11.45 -35.65 -10.7 -37.75 -9.8 -39.15 -9.4 -37.75 -9.8 Q-38.8 -9.2 -39.25 -8.15 L-39.3 -8.1 -39.15 -9.4 Q-34.6 -19.05 -22.9 -24.0 0.95 -31.0 27.3 -24.0 36.65 -16.95 38.95 -8.8 L38.3 -8.65 Q38.0 -9.6 37.55 -9.9 L36.75 -10.25 34.25 -11.35 M29.05 13.55 L25.7 20.4 -1.1 27.55 -27.2 19.3 -29.25 14.6 -28.75 14.6 -24.65 16.1 Q-20.6 17.6 -13.0 18.65 L1.15 19.85 5.0 19.75 Q9.35 20.35 20.25 17.3 25.0 16.85 29.05 13.55" fill="#ae9ea3" fill-rule="evenodd" stroke="none"/>
      <path d="M-6.15 -22.55 Q-6.35 -23.65 -8.05 -23.75 -11.55 -24.2 -14.85 -23.0 -19.2 -21.35 -22.75 -22.5 -14.6 -26.45 -5.5 -24.0 1.45 -27.0 8.0 -23.2 17.6 -28.4 25.3 -21.35 L25.15 -21.15 Q17.3 -26.0 8.95 -22.25 L10.3 -16.15 12.9 -17.3 11.45 -19.75 11.6 -20.05 Q12.5 -20.6 13.3 -19.9 L13.9 -16.15 8.7 -14.85 Q6.6 -13.25 4.4 -12.8 -2.7 -11.3 -8.05 -15.5 L-10.9 -15.75 -12.1 -17.0 -9.75 -21.25 Q-8.5 -20.55 -7.25 -19.95 L-9.2 -19.95 -10.8 -17.4 -7.05 -16.85 Q-5.2 -15.05 -2.65 -14.2 0.65 -13.05 4.15 -13.7 6.45 -14.2 7.8 -16.0 10.4 -19.5 6.9 -22.1 3.85 -24.2 0.15 -23.9 -3.15 -23.7 -5.95 -22.5 L-6.15 -22.55 M30.1 -11.45 L34.25 -11.35 36.75 -10.25 37.55 -9.9 Q38.0 -9.6 38.3 -8.65 L38.55 -8.1 38.75 -7.55 Q36.2 -10.85 31.85 -10.7 L21.65 -7.85 10.45 -3.2 Q5.35 -1.85 0.3 -3.25 L-10.55 -6.8 -23.85 -10.35 -35.8 -9.55 Q-37.55 -8.8 -39.25 -8.15 -38.8 -9.2 -37.75 -9.8 L-35.65 -10.7 -29.0 -11.45 -23.85 -10.9 -17.45 -10.0 -13.35 -8.8 -9.35 -7.35 -3.15 -5.35 3.05 -3.65 8.85 -3.5 Q12.45 -4.3 15.85 -5.9 L21.7 -8.7 30.1 -11.45 M29.45 12.8 L29.8 12.9 Q30.55 13.7 29.05 13.55 25.0 16.85 20.25 17.3 9.35 20.35 5.0 19.75 L1.15 19.85 -13.0 18.65 Q-20.6 17.6 -24.65 16.1 L-28.75 14.6 -29.25 14.6 -29.45 14.15 -29.45 14.1 -25.6 14.85 -16.35 16.9 -7.15 18.35 0.3 19.0 Q4.7 19.1 8.35 18.85 L16.75 17.3 23.75 15.25 29.45 12.8" fill="#000000" fill-rule="evenodd" stroke="none"/>
      <path d="M38.3 -8.65 L38.95 -8.8 39.35 -7.35 32.8 6.0 29.45 12.8 23.75 15.25 25.45 10.1 23.75 15.25 16.75 17.3 8.35 18.85 Q4.7 19.1 0.3 19.0 L-7.15 18.35 -7.65 13.5 -17.55 12.95 -7.65 13.5 -10.55 -6.8 0.3 -3.25 Q5.35 -1.85 10.45 -3.2 L9.0 12.85 10.45 -3.2 21.65 -7.85 31.85 -10.7 Q36.2 -10.85 38.75 -7.55 L38.55 -8.1 38.3 -8.65 M0.3 13.3 L0.3 -3.25 0.3 13.3 9.0 12.85 0.3 13.3 0.3 19.0 0.3 13.3 -7.65 13.5 -7.15 18.35 -16.35 16.9 -25.6 14.85 -29.45 14.1 -29.45 14.15 -39.3 -8.1 -39.25 -8.15 Q-37.55 -8.8 -35.8 -9.55 L-23.85 -10.35 -17.55 12.95 -23.85 -10.35 -10.55 -6.8 -7.65 13.5 0.3 13.3 M-26.9 11.0 L-35.8 -9.55 -26.9 11.0 Q-22.7 12.65 -17.55 12.95 L-16.35 16.9 -17.55 12.95 Q-22.7 12.65 -26.9 11.0 L-25.6 14.85 -26.9 11.0 M25.45 10.1 Q30.05 8.55 32.8 6.0 30.05 8.55 25.45 10.1 L31.85 -10.7 25.45 10.1 17.6 11.85 25.45 10.1 M8.35 18.85 L9.0 12.85 8.35 18.85 M9.0 12.85 L17.6 11.85 9.0 12.85 M21.65 -7.85 L17.6 11.85 16.75 17.3 17.6 11.85 21.65 -7.85" fill="#ffffff" fill-rule="evenodd" stroke="none"/>
      <path d="M13.9 -16.15 Q17.4 -12.45 30.1 -11.45 L34.25 -11.35 M-39.15 -9.4 L-37.75 -9.8 -35.65 -10.7 -29.0 -11.45 Q-17.25 -13.75 -12.1 -17.0" fill="none" stroke="#000000" stroke-linecap="round" stroke-linejoin="round" stroke-width="1.5"/>
      <path d="M38.95 -8.8 L39.35 -7.35 M-1.1 27.55 L-27.2 19.3" fill="none" stroke="#000000" stroke-linecap="round" stroke-linejoin="round" stroke-width="2.0"/>
      <path d="M38.95 -8.8 Q36.65 -16.95 27.3 -24.0 0.95 -31.0 -22.9 -24.0 -34.6 -19.05 -39.15 -9.4 L-39.3 -8.1 -29.45 14.15 M39.35 -7.35 L32.8 6.0 29.45 12.8 M29.05 13.55 L25.7 20.4 -1.1 27.55 M-27.2 19.3 L-29.25 14.6" fill="none" stroke="#000000" stroke-linecap="round" stroke-linejoin="round" stroke-width="2.0"/>
      <path d="M-5.95 -22.5 L-6.15 -22.55 M0.3 -3.25 L0.3 13.3 0.3 19.0 M9.0 12.85 L10.45 -3.2 M-35.8 -9.55 L-26.9 11.0 -25.6 14.85 M-17.55 12.95 L-23.85 -10.35 M-16.35 16.9 L-17.55 12.95 M-7.65 13.5 L-10.55 -6.8 M-7.65 13.5 L-7.15 18.35 M25.45 10.1 L23.75 15.25 M25.45 10.1 L31.85 -10.7 M9.0 12.85 L8.35 18.85 M16.75 17.3 L17.6 11.85 21.65 -7.85" fill="none" stroke="#000000" stroke-linecap="round" stroke-linejoin="round" stroke-width="1.0"/>
      <path d="M0.3 13.3 L9.0 12.85 17.6 11.85 25.45 10.1 Q30.05 8.55 32.8 6.0 M-26.9 11.0 Q-22.7 12.65 -17.55 12.95 L-7.65 13.5 0.3 13.3" fill="none" stroke="#000000" stroke-linecap="round" stroke-linejoin="round" stroke-width="0.5"/>
    </g>
  </defs>
</svg>
