<?xml version="1.0" encoding="UTF-8" standalone="no"?>
<svg xmlns:xlink="http://www.w3.org/1999/xlink" height="9.8px" width="41.0px" xmlns="http://www.w3.org/2000/svg">
  <g transform="matrix(1.0, 0.0, 0.0, 1.0, -0.15, -3.35)">
    <g transform="matrix(1.0, 0.0, 0.0, 1.0, 0.0, 0.0)">
      <use fill="#999999" height="9.8" transform="matrix(0.2344, 0.0, 0.0, 0.2344, 0.0, 13.0)" width="41.0" xlink:href="#font_ComicBook_Normal_C0"/>
      <use fill="#999999" height="9.8" transform="matrix(0.2344, 0.0, 0.0, 0.2344, 8.7, 13.0)" width="41.0" xlink:href="#font_ComicBook_Normal_A0"/>
      <use fill="#999999" height="9.8" transform="matrix(0.2344, 0.0, 0.0, 0.2344, 18.45, 13.0)" width="41.0" xlink:href="#font_ComicBook_Normal_L0"/>
      <use fill="#999999" height="9.8" transform="matrix(0.2344, 0.0, 0.0, 0.2344, 25.0, 13.0)" width="41.0" xlink:href="#font_ComicBook_Normal_L0"/>
      <use fill="#999999" height="9.8" transform="matrix(0.2344, 0.0, 0.0, 0.2344, 31.55, 13.0)" width="41.0" xlink:href="#font_ComicBook_Normal_S0"/>
    </g>
  </g>
  <defs>
    <g id="font_ComicBook_Normal_C0">
      <path d="M26.95 -27.55 Q26.5 -29.5 25.9 -30.15 25.05 -31.15 23.15 -31.15 20.75 -31.25 16.85 -27.0 13.4 -23.2 10.6 -18.25 7.75 -13.25 7.75 -11.15 L7.8 -10.55 Q8.65 -8.2 12.85 -8.2 16.95 -8.2 21.0 -9.6 L27.45 -12.4 Q30.95 -13.95 33.0 -14.0 36.1 -14.15 36.3 -11.9 36.75 -7.5 29.55 -3.75 23.1 -0.35 17.25 -0.35 10.95 -0.35 6.2 -2.75 0.55 -5.6 0.65 -10.6 0.8 -17.55 5.95 -25.2 10.45 -31.75 16.85 -36.45 23.05 -40.9 26.6 -40.55 29.45 -40.3 31.45 -37.95 33.45 -35.55 33.75 -32.45 L33.85 -30.3 Q33.85 -22.6 30.3 -22.3 27.65 -22.1 26.95 -27.55" fill-rule="evenodd" stroke="none"/>
    </g>
    <g id="font_ComicBook_Normal_A0">
      <path d="M20.4 -39.8 Q22.35 -39.8 24.7 -37.75 27.3 -35.45 29.55 -31.35 32.55 -25.9 34.2 -21.55 L38.05 -11.7 39.8 -8.65 Q40.65 -7.15 40.65 -5.7 40.65 -4.5 39.7 -2.85 38.55 -0.85 37.2 -0.85 34.55 -0.85 32.2 -8.8 30.45 -10.6 27.45 -10.6 L23.9 -10.25 20.15 -9.55 Q16.15 -9.0 12.85 -7.8 9.25 -6.55 8.35 -5.1 8.0 -4.5 8.0 -3.95 L8.05 -1.5 Q7.2 0.75 5.15 0.75 2.9 0.75 1.6 -0.65 0.75 -1.5 0.75 -2.8 0.75 -4.4 2.2 -7.3 L11.4 -26.65 Q16.6 -37.25 19.35 -39.55 L19.15 -39.45 Q19.15 -39.8 20.4 -39.8 M23.75 -26.05 L22.75 -27.75 Q22.05 -28.75 21.2 -28.8 20.45 -28.9 19.35 -27.95 17.4 -25.35 15.25 -21.5 L12.85 -15.5 20.2 -15.7 Q23.25 -16.0 28.2 -17.6 L25.8 -22.55 23.75 -26.05" fill-rule="evenodd" stroke="none"/>
    </g>
    <g id="font_ComicBook_Normal_L0">
      <path d="M6.7 -41.15 Q9.6 -40.8 9.9 -36.7 L8.7 -10.75 Q8.7 -9.5 9.75 -9.5 L11.9 -10.05 16.95 -12.2 Q19.65 -13.45 22.1 -13.45 L25.6 -13.3 Q27.35 -12.7 27.5 -10.05 27.65 -8.1 26.05 -6.9 25.05 -6.2 22.7 -5.5 L12.25 -3.0 Q11.15 -2.65 8.4 -1.2 6.35 -0.05 4.45 0.15 3.05 0.4 2.25 -0.9 1.6 -1.85 1.6 -3.3 1.6 -6.9 2.15 -11.75 2.85 -17.9 2.85 -20.75 L2.45 -36.5 Q2.55 -38.0 3.7 -39.6 5.0 -41.4 6.7 -41.15" fill-rule="evenodd" stroke="none"/>
    </g>
    <g id="font_ComicBook_Normal_S0">
      <path d="M24.05 -38.8 Q28.8 -40.15 30.9 -39.9 33.9 -39.6 35.45 -35.1 36.65 -31.8 36.4 -29.25 36.25 -27.5 33.4 -27.1 32.2 -27.0 30.9 -28.45 29.3 -30.25 28.4 -30.55 L25.45 -31.1 23.75 -30.85 Q16.4 -28.65 11.6 -25.15 9.95 -23.95 9.95 -22.65 9.95 -20.4 18.85 -20.15 L37.3 -19.85 Q39.9 -19.05 40.85 -15.4 L41.0 -14.1 Q41.0 -9.25 33.3 -4.45 25.8 0.2 19.4 0.2 14.9 0.15 11.9 -1.0 8.95 -2.05 5.15 -5.1 3.35 -7.9 3.35 -9.25 3.35 -10.65 5.1 -10.65 6.0 -10.65 8.35 -9.55 13.35 -7.25 18.1 -7.25 21.35 -7.25 24.45 -8.35 L29.65 -10.45 Q31.55 -11.25 31.55 -11.85 31.55 -12.55 29.5 -13.3 L24.7 -13.65 18.7 -13.95 10.85 -15.25 Q6.45 -16.0 4.1 -17.45 1.2 -19.2 1.05 -22.35 0.95 -25.7 3.05 -28.25 4.9 -30.45 8.3 -32.2 L14.75 -35.3 Q19.15 -37.45 24.05 -38.8" fill-rule="evenodd" stroke="none"/>
    </g>
  </defs>
</svg>
