<?xml version="1.0" encoding="UTF-8" standalone="no"?>
<svg xmlns:xlink="http://www.w3.org/1999/xlink" height="18.7px" width="36.5px" xmlns="http://www.w3.org/2000/svg">
  <g transform="matrix(1.0, 0.0, 0.0, 1.0, -53.8, -2.7)">
    <g transform="matrix(1.0, 0.0, 0.0, 1.0, 53.65, 0.0)">
      <use fill="#ffffff" height="18.7" transform="matrix(0.1953, 0.0, 0.0, 0.1953, 4.85, 10.8)" width="36.5" xlink:href="#font_ComicBook_Normal_N0"/>
      <use fill="#ffffff" height="18.7" transform="matrix(0.1953, 0.0, 0.0, 0.1953, 10.9, 10.8)" width="36.5" xlink:href="#font_ComicBook_Normal_E0"/>
      <use fill="#ffffff" height="18.7" transform="matrix(0.1953, 0.0, 0.0, 0.1953, 17.6, 10.8)" width="36.5" xlink:href="#font_ComicBook_Normal_X0"/>
      <use fill="#ffffff" height="18.7" transform="matrix(0.1953, 0.0, 0.0, 0.1953, 24.65, 10.8)" width="36.5" xlink:href="#font_ComicBook_Normal_T0"/>
    </g>
    <g transform="matrix(1.0, 0.0, 0.0, 1.0, 53.65, 0.0)">
      <use fill="#ffffff" height="18.7" transform="matrix(0.1953, 0.0, 0.0, 0.1953, 0.05, 21.25)" width="36.5" xlink:href="#font_ComicBook_Normal_R0"/>
      <use fill="#ffffff" height="18.7" transform="matrix(0.1953, 0.0, 0.0, 0.1953, 6.75, 21.25)" width="36.5" xlink:href="#font_ComicBook_Normal_O0"/>
      <use fill="#ffffff" height="18.7" transform="matrix(0.1953, 0.0, 0.0, 0.1953, 15.05, 21.25)" width="36.5" xlink:href="#font_ComicBook_Normal_U0"/>
      <use fill="#ffffff" height="18.7" transform="matrix(0.1953, 0.0, 0.0, 0.1953, 22.75, 21.25)" width="36.5" xlink:href="#font_ComicBook_Normal_N0"/>
      <use fill="#ffffff" height="18.7" transform="matrix(0.1953, 0.0, 0.0, 0.1953, 28.8, 21.25)" width="36.5" xlink:href="#font_ComicBook_Normal_D0"/>
    </g>
  </g>
  <defs>
    <g id="font_ComicBook_Normal_N0">
      <path d="M23.45 -35.8 Q23.45 -37.25 23.85 -38.5 24.95 -41.55 27.5 -41.4 28.9 -41.35 29.7 -40.3 30.65 -39.3 30.65 -38.0 30.65 -35.4 29.75 -31.4 28.8 -27.2 28.75 -24.95 L28.7 -22.2 Q28.7 -19.2 29.1 -15.05 L29.95 -7.15 Q30.3 -4.75 27.95 -3.25 25.95 -2.05 23.4 -2.05 20.95 -2.05 17.95 -4.8 14.8 -7.6 9.4 -14.3 L8.55 -13.95 Q8.2 -13.9 8.2 -13.45 7.95 -8.45 8.5 -4.25 8.9 -1.8 6.3 -0.65 5.25 -0.2 4.2 -0.2 2.15 -0.2 1.6 -2.75 1.3 -4.2 1.3 -5.65 1.3 -7.3 2.0 -11.05 2.75 -14.8 2.65 -16.85 L2.9 -23.9 Q2.9 -28.85 1.35 -32.7 L1.15 -33.85 Q1.15 -35.1 1.9 -36.1 2.75 -37.15 4.05 -37.2 L4.05 -37.25 Q7.05 -37.4 9.6 -33.7 10.45 -32.45 10.65 -30.6 10.95 -28.05 11.3 -27.25 L12.15 -24.55 Q12.55 -23.35 13.3 -22.05 14.8 -19.7 17.4 -16.7 20.2 -13.6 21.1 -13.45 22.25 -13.3 22.7 -16.05 L22.85 -19.75 22.8 -21.1 23.45 -35.8" fill-rule="evenodd" stroke="none"/>
    </g>
    <g id="font_ComicBook_Normal_E0">
      <path d="M24.4 -39.1 L31.3 -39.95 Q32.35 -39.95 33.2 -39.05 33.9 -38.1 34.15 -36.8 34.45 -35.05 33.25 -33.5 32.05 -32.1 30.1 -31.95 L24.75 -31.4 19.2 -31.25 Q15.25 -31.35 12.15 -29.85 8.55 -28.1 8.55 -24.3 L8.7 -23.25 Q9.05 -22.2 10.25 -22.2 L11.35 -22.35 12.35 -22.35 Q14.95 -22.5 20.3 -24.15 25.35 -25.65 28.6 -25.65 30.2 -25.65 31.6 -24.6 32.9 -23.6 33.0 -22.0 33.05 -20.6 32.3 -19.5 31.45 -18.1 30.0 -18.1 L23.4 -17.05 16.95 -15.25 12.5 -14.75 8.7 -14.2 Q8.1 -14.0 8.0 -13.0 L8.05 -11.2 8.1 -8.95 Q8.2 -8.55 8.55 -8.35 10.0 -7.6 11.85 -7.6 14.3 -7.6 19.5 -9.15 25.3 -10.9 27.85 -11.2 29.5 -11.45 30.95 -10.5 32.3 -9.55 32.45 -8.05 32.6 -6.3 31.45 -5.1 30.25 -3.9 28.2 -3.65 L18.25 -1.8 Q12.3 -0.3 8.15 0.05 2.25 0.45 1.65 -4.05 L1.45 -6.6 Q1.45 -8.6 2.05 -11.8 L2.9 -17.35 2.85 -28.2 Q3.0 -30.45 3.4 -31.6 4.5 -34.75 8.0 -36.15 10.25 -37.05 12.7 -37.25 L17.8 -37.75 24.4 -39.1" fill-rule="evenodd" stroke="none"/>
    </g>
    <g id="font_ComicBook_Normal_X0">
      <path d="M22.65 -32.2 L26.45 -36.15 Q29.45 -39.1 32.9 -39.0 34.05 -38.9 35.05 -38.05 36.05 -37.1 36.05 -36.0 L35.95 -35.35 Q35.25 -33.0 32.9 -31.2 L24.6 -24.4 Q23.65 -23.65 23.65 -22.2 23.65 -20.95 24.4 -19.85 28.35 -13.65 33.95 -9.05 35.3 -7.95 35.3 -6.35 L35.05 -4.25 Q34.7 -2.65 33.7 -1.35 32.65 0.1 31.45 0.1 L30.6 -0.15 Q25.4 -3.5 22.6 -7.0 20.05 -10.25 18.95 -12.8 18.35 -14.2 17.35 -14.2 16.45 -14.2 15.3 -12.95 L12.65 -8.75 Q10.75 -5.35 9.05 -3.2 6.7 -0.25 3.65 -0.55 L1.85 -0.75 Q0.85 -1.0 0.95 -1.5 1.4 -4.4 2.65 -6.45 L5.2 -10.45 Q7.0 -13.15 9.6 -15.8 12.7 -19.1 13.9 -20.95 L14.65 -22.45 14.2 -24.35 Q12.9 -27.45 10.5 -29.6 L5.8 -33.95 Q4.85 -34.85 4.85 -36.25 4.85 -37.65 5.8 -38.85 6.65 -39.95 9.75 -40.35 11.7 -40.4 12.85 -39.4 L15.0 -36.85 16.6 -33.2 Q18.15 -30.35 19.5 -30.15 20.45 -30.0 22.65 -32.2" fill-rule="evenodd" stroke="none"/>
    </g>
    <g id="font_ComicBook_Normal_T0">
      <path d="M33.75 -39.8 Q35.55 -39.8 36.75 -39.05 38.2 -38.2 38.2 -36.65 38.2 -35.0 36.95 -33.75 35.7 -32.5 34.05 -32.35 L25.25 -31.9 24.15 -31.25 Q23.6 -30.75 23.65 -30.2 24.5 -27.45 24.5 -24.75 L24.15 -20.6 23.55 -15.9 23.1 -9.8 22.1 -3.2 Q21.85 -2.0 20.7 -1.2 19.55 -0.45 18.1 -0.45 16.6 -0.35 15.55 -0.9 14.25 -1.55 14.35 -2.65 L15.15 -13.25 Q15.6 -18.15 15.55 -23.05 L15.05 -31.05 Q14.85 -31.75 13.5 -31.7 L8.2 -31.15 Q6.75 -31.0 5.5 -31.95 4.2 -32.85 4.25 -34.35 4.35 -35.85 5.55 -36.95 6.75 -38.05 8.25 -38.05 L19.7 -38.9 33.75 -39.8" fill-rule="evenodd" stroke="none"/>
    </g>
    <g id="font_ComicBook_Normal_R0">
      <path d="M23.7 -39.85 Q27.35 -39.8 29.7 -38.8 32.5 -37.55 33.65 -34.65 L33.85 -33.4 Q33.85 -30.95 30.95 -27.3 28.55 -24.3 25.1 -21.55 21.95 -19.0 21.0 -19.1 L24.75 -14.15 Q25.55 -13.25 27.8 -11.8 L30.75 -9.55 Q31.85 -8.35 31.85 -6.5 31.85 -4.3 30.2 -3.05 29.05 -2.15 27.75 -2.15 26.15 -2.15 24.45 -3.4 22.95 -4.45 21.15 -6.95 19.45 -9.55 17.95 -10.6 13.15 -13.85 10.05 -13.85 8.7 -13.85 8.7 -11.7 L8.8 -7.15 Q8.75 -5.95 8.35 -4.7 L7.55 -2.2 Q7.0 -0.9 6.0 -0.35 4.1 0.7 2.85 0.7 0.6 0.7 0.6 -5.35 L1.4 -33.25 Q1.85 -37.0 5.8 -38.55 8.35 -39.55 11.25 -39.85 L23.7 -39.85 M21.75 -27.6 Q24.65 -29.6 24.95 -31.35 25.2 -32.85 22.25 -33.2 L13.8 -33.45 12.95 -33.45 Q11.2 -33.4 9.75 -32.4 9.2 -32.0 9.0 -31.2 L8.55 -29.55 8.55 -29.5 7.35 -26.1 7.25 -25.1 Q7.25 -24.2 7.75 -24.0 L9.4 -23.7 11.05 -23.55 Q12.05 -23.55 15.55 -24.55 18.9 -25.55 21.75 -27.6" fill-rule="evenodd" stroke="none"/>
    </g>
    <g id="font_ComicBook_Normal_O0">
      <path d="M30.95 -38.8 Q34.1 -37.65 35.55 -35.75 40.1 -29.95 40.1 -22.4 40.1 -14.65 35.35 -8.05 32.55 -4.15 27.85 -2.0 23.55 0.0 18.7 0.0 14.0 0.0 10.2 -1.8 6.05 -3.75 3.95 -7.2 1.4 -11.3 1.4 -16.0 1.4 -21.75 5.05 -27.85 7.85 -32.55 11.35 -35.5 16.55 -39.95 23.95 -39.95 27.65 -39.95 30.95 -38.8 M29.4 -30.2 Q27.25 -32.05 23.35 -32.05 20.05 -32.05 17.1 -30.65 13.85 -29.15 12.2 -26.25 9.55 -21.75 9.55 -16.45 9.55 -12.65 11.35 -10.8 13.9 -8.1 18.35 -8.1 24.0 -8.1 27.7 -12.15 32.45 -17.3 32.45 -23.25 32.45 -27.5 29.4 -30.2" fill-rule="evenodd" stroke="none"/>
    </g>
    <g id="font_ComicBook_Normal_U0">
      <path d="M30.7 -28.2 L30.5 -30.95 Q30.4 -32.6 30.8 -33.75 32.7 -40.15 35.1 -40.15 36.4 -40.15 37.7 -39.15 39.0 -38.25 39.0 -36.95 L38.9 -36.55 Q36.6 -27.55 36.3 -22.1 L36.05 -15.55 Q36.05 -9.15 38.7 -3.85 L39.1 -2.6 Q39.1 -0.6 34.15 -0.65 L30.25 -1.45 27.7 -2.4 Q20.85 0.6 16.85 0.35 1.75 -0.4 1.5 -9.2 1.4 -13.8 2.65 -19.05 L4.75 -28.5 4.85 -31.6 Q4.75 -33.5 5.0 -34.65 5.2 -36.2 6.5 -37.1 7.7 -38.0 9.4 -37.95 11.1 -37.85 12.2 -36.1 L13.25 -32.25 13.5 -30.65 Q13.5 -29.25 12.65 -27.05 L11.45 -23.4 9.45 -12.9 Q9.0 -10.95 9.05 -10.15 9.25 -7.85 13.45 -7.85 L18.3 -8.3 Q28.35 -9.35 28.75 -13.95 L30.7 -28.2" fill-rule="evenodd" stroke="none"/>
    </g>
    <g id="font_ComicBook_Normal_D0">
      <path d="M21.8 -39.85 L30.55 -40.45 33.85 -40.15 Q39.95 -38.6 40.1 -35.35 40.35 -30.55 36.15 -23.3 31.85 -15.7 25.2 -9.6 17.55 -2.65 9.75 -0.2 7.6 0.5 5.4 0.5 3.35 0.5 2.2 -0.2 L2.05 -0.95 2.8 -7.75 Q3.5 -13.35 3.6 -16.7 3.7 -19.65 3.25 -23.6 L2.8 -29.8 2.95 -32.7 Q3.15 -34.95 4.15 -36.35 5.3 -38.1 7.05 -38.2 L7.1 -38.2 14.15 -38.95 21.8 -39.85 M30.15 -32.95 L22.4 -32.1 Q18.65 -32.0 11.8 -30.15 L9.7 -10.55 9.8 -9.65 Q10.25 -8.85 11.3 -8.85 12.35 -8.85 14.15 -9.7 18.8 -11.6 23.7 -16.45 27.6 -20.3 30.7 -24.95 33.35 -29.05 33.45 -30.25 33.5 -32.95 30.15 -32.95" fill-rule="evenodd" stroke="none"/>
    </g>
  </defs>
</svg>
