<?xml version="1.0" encoding="UTF-8" standalone="no"?>
<svg xmlns:xlink="http://www.w3.org/1999/xlink" height="18.4px" width="34.25px" xmlns="http://www.w3.org/2000/svg">
  <g transform="matrix(1.0, 0.0, 0.0, 1.0, -54.7, -2.85)">
    <g transform="matrix(1.0, 0.0, 0.0, 1.0, 54.45, 0.0)">
      <use fill="#ffffff" height="18.4" transform="matrix(0.1953, 0.0, 0.0, 0.1953, 0.05, 10.8)" width="34.25" xlink:href="#font_ComicBook_Normal_S0"/>
      <use fill="#ffffff" height="18.4" transform="matrix(0.1953, 0.0, 0.0, 0.1953, 8.55, 10.8)" width="34.25" xlink:href="#font_ComicBook_Normal_H0"/>
      <use fill="#ffffff" height="18.4" transform="matrix(0.1953, 0.0, 0.0, 0.1953, 15.75, 10.8)" width="34.25" xlink:href="#font_ComicBook_Normal_O0"/>
      <use fill="#ffffff" height="18.4" transform="matrix(0.1953, 0.0, 0.0, 0.1953, 24.55, 10.8)" width="34.25" xlink:href="#font_ComicBook_Normal_W0"/>
    </g>
    <g transform="matrix(1.0, 0.0, 0.0, 1.0, 54.45, 0.0)">
      <use fill="#ffffff" height="18.4" transform="matrix(0.1953, 0.0, 0.0, 0.1953, 5.1, 21.25)" width="34.25" xlink:href="#font_ComicBook_Normal_H0"/>
      <use fill="#ffffff" height="18.4" transform="matrix(0.1953, 0.0, 0.0, 0.1953, 12.3, 21.25)" width="34.25" xlink:href="#font_ComicBook_Normal_I0"/>
      <use fill="#ffffff" height="18.4" transform="matrix(0.1953, 0.0, 0.0, 0.1953, 15.75, 21.25)" width="34.25" xlink:href="#font_ComicBook_Normal_N0"/>
      <use fill="#ffffff" height="18.4" transform="matrix(0.1953, 0.0, 0.0, 0.1953, 22.3, 21.25)" width="34.25" xlink:href="#font_ComicBook_Normal_T0"/>
    </g>
  </g>
  <defs>
    <g id="font_ComicBook_Normal_S0">
      <path d="M24.05 -38.8 Q28.8 -40.15 30.9 -39.9 33.9 -39.6 35.45 -35.1 36.65 -31.8 36.4 -29.25 36.25 -27.5 33.4 -27.1 32.2 -27.0 30.9 -28.45 29.3 -30.25 28.4 -30.55 L25.45 -31.1 23.75 -30.85 Q16.4 -28.65 11.6 -25.15 9.95 -23.95 9.95 -22.65 9.95 -20.4 18.85 -20.15 L37.3 -19.85 Q39.9 -19.05 40.85 -15.4 L41.0 -14.1 Q41.0 -9.25 33.3 -4.45 25.8 0.2 19.4 0.2 14.9 0.15 11.9 -1.0 8.95 -2.05 5.15 -5.1 3.35 -7.9 3.35 -9.25 3.35 -10.65 5.1 -10.65 6.0 -10.65 8.35 -9.55 13.35 -7.25 18.1 -7.25 21.35 -7.25 24.45 -8.35 L29.65 -10.45 Q31.55 -11.25 31.55 -11.85 31.55 -12.55 29.5 -13.3 L24.7 -13.65 18.7 -13.95 10.85 -15.25 Q6.45 -16.0 4.1 -17.45 1.2 -19.2 1.05 -22.35 0.95 -25.7 3.05 -28.25 4.9 -30.45 8.3 -32.2 L14.75 -35.3 Q19.15 -37.45 24.05 -38.8" fill-rule="evenodd" stroke="none"/>
    </g>
    <g id="font_ComicBook_Normal_H0">
      <path d="M27.4 -39.15 Q28.15 -40.0 29.15 -40.15 30.9 -40.2 31.9 -39.05 32.75 -38.15 32.9 -36.75 32.95 -33.75 32.5 -28.9 L31.95 -21.1 Q31.65 -13.0 31.95 -3.95 31.95 -2.85 31.15 -2.2 30.2 -1.5 28.95 -1.4 25.8 -1.35 25.4 -3.95 L25.3 -5.3 25.8 -12.75 25.55 -14.15 Q25.25 -15.15 24.4 -15.4 L22.55 -15.85 20.85 -16.05 18.7 -15.75 16.35 -15.35 13.45 -15.35 Q11.8 -15.35 10.65 -14.75 L9.05 -13.85 Q8.3 -13.4 8.2 -12.65 L8.0 -9.75 8.35 -2.85 Q8.35 -1.7 7.55 -0.85 6.75 0.0 5.55 0.0 3.0 0.0 2.2 -1.05 1.85 -1.6 1.6 -3.75 0.95 -9.65 1.25 -16.15 1.4 -18.7 2.2 -22.5 L3.25 -28.95 2.85 -33.05 Q2.85 -34.1 3.2 -34.95 4.95 -39.5 7.8 -39.25 L7.75 -39.2 Q9.35 -39.15 10.55 -38.3 11.75 -37.4 11.55 -36.2 L9.25 -24.75 Q8.6 -22.85 8.6 -22.15 8.6 -21.25 9.85 -21.25 L21.95 -23.4 Q24.75 -24.0 25.4 -25.7 25.75 -26.7 25.75 -28.35 L25.65 -31.2 25.6 -34.6 Q25.6 -36.15 26.35 -37.5 L27.4 -39.15" fill-rule="evenodd" stroke="none"/>
    </g>
    <g id="font_ComicBook_Normal_O0">
      <path d="M30.95 -38.8 Q34.1 -37.65 35.55 -35.75 40.1 -29.95 40.1 -22.4 40.1 -14.65 35.35 -8.05 32.55 -4.15 27.85 -2.0 23.55 0.0 18.7 0.0 14.0 0.0 10.2 -1.8 6.05 -3.75 3.95 -7.2 1.4 -11.3 1.4 -16.0 1.4 -21.75 5.05 -27.85 7.85 -32.55 11.35 -35.5 16.55 -39.95 23.95 -39.95 27.65 -39.95 30.95 -38.8 M29.4 -30.2 Q27.25 -32.05 23.35 -32.05 20.05 -32.05 17.1 -30.65 13.85 -29.15 12.2 -26.25 9.55 -21.75 9.55 -16.45 9.55 -12.65 11.35 -10.8 13.9 -8.1 18.35 -8.1 24.0 -8.1 27.7 -12.15 32.45 -17.3 32.45 -23.25 32.45 -27.5 29.4 -30.2" fill-rule="evenodd" stroke="none"/>
    </g>
    <g id="font_ComicBook_Normal_W0">
      <path d="M29.8 -36.7 L29.6 -34.5 31.4 -21.45 Q31.75 -20.0 32.75 -19.0 33.55 -18.35 34.35 -18.35 35.35 -18.35 35.8 -19.55 L40.9 -32.75 42.55 -36.75 Q43.6 -38.65 44.5 -39.55 45.85 -40.8 47.4 -40.6 48.9 -40.35 49.95 -39.25 51.0 -38.2 51.0 -36.95 L50.8 -35.9 Q49.0 -31.9 47.0 -26.15 45.15 -20.8 43.25 -16.75 L39.9 -10.15 Q38.25 -7.1 35.9 -3.8 33.45 -0.3 32.0 -0.3 30.95 -0.3 30.1 -2.45 26.95 -10.65 25.65 -15.8 24.8 -19.0 23.45 -19.0 22.5 -19.0 21.55 -16.8 L18.95 -10.2 15.85 -3.5 Q14.1 0.05 12.0 0.05 10.2 0.05 9.05 -3.5 5.75 -13.6 4.25 -19.35 2.5 -26.0 0.6 -36.7 0.35 -38.15 1.75 -39.25 3.15 -40.5 4.9 -40.5 7.6 -40.5 8.35 -38.2 9.4 -34.55 10.3 -29.1 L12.1 -19.75 Q12.65 -17.3 13.3 -17.3 14.0 -17.3 15.0 -19.55 L17.9 -25.2 Q19.45 -28.25 20.15 -30.85 L21.2 -36.35 Q21.65 -38.1 22.9 -39.25 24.15 -40.5 25.65 -40.5 27.4 -40.5 28.55 -39.5 29.75 -38.55 29.8 -36.7" fill-rule="evenodd" stroke="none"/>
    </g>
    <g id="font_ComicBook_Normal_I0">
      <path d="M8.9 -39.95 L8.9 -40.05 Q10.75 -40.05 12.0 -38.35 13.15 -36.7 12.85 -34.8 12.1 -28.05 11.7 -19.45 L10.45 -3.6 Q10.15 -0.4 7.4 -0.05 5.7 0.25 4.3 -0.9 3.0 -2.05 3.1 -3.6 L3.55 -19.6 Q3.75 -26.95 4.55 -35.4 4.8 -37.35 6.0 -38.65 7.2 -39.95 8.9 -39.95" fill-rule="evenodd" stroke="none"/>
    </g>
    <g id="font_ComicBook_Normal_N0">
      <path d="M23.45 -35.8 Q23.45 -37.25 23.85 -38.5 24.95 -41.55 27.5 -41.4 28.9 -41.35 29.7 -40.3 30.65 -39.3 30.65 -38.0 30.65 -35.4 29.75 -31.4 28.8 -27.2 28.75 -24.95 L28.7 -22.2 Q28.7 -19.2 29.1 -15.05 L29.95 -7.15 Q30.3 -4.75 27.95 -3.25 25.95 -2.05 23.4 -2.05 20.95 -2.05 17.95 -4.8 14.8 -7.6 9.4 -14.3 L8.55 -13.95 Q8.2 -13.9 8.2 -13.45 7.95 -8.45 8.5 -4.25 8.9 -1.8 6.3 -0.65 5.25 -0.2 4.2 -0.2 2.15 -0.2 1.6 -2.75 1.3 -4.2 1.3 -5.65 1.3 -7.3 2.0 -11.05 2.75 -14.8 2.65 -16.85 L2.9 -23.9 Q2.9 -28.85 1.35 -32.7 L1.15 -33.85 Q1.15 -35.1 1.9 -36.1 2.75 -37.15 4.05 -37.2 L4.05 -37.25 Q7.05 -37.4 9.6 -33.7 10.45 -32.45 10.65 -30.6 10.95 -28.05 11.3 -27.25 L12.15 -24.55 Q12.55 -23.35 13.3 -22.05 14.8 -19.7 17.4 -16.7 20.2 -13.6 21.1 -13.45 22.25 -13.3 22.7 -16.05 L22.85 -19.75 22.8 -21.1 23.45 -35.8" fill-rule="evenodd" stroke="none"/>
    </g>
    <g id="font_ComicBook_Normal_T0">
      <path d="M33.75 -39.8 Q35.55 -39.8 36.75 -39.05 38.2 -38.2 38.2 -36.65 38.2 -35.0 36.95 -33.75 35.7 -32.5 34.05 -32.35 L25.25 -31.9 24.15 -31.25 Q23.6 -30.75 23.65 -30.2 24.5 -27.45 24.5 -24.75 L24.15 -20.6 23.55 -15.9 23.1 -9.8 22.1 -3.2 Q21.85 -2.0 20.7 -1.2 19.55 -0.45 18.1 -0.45 16.6 -0.35 15.55 -0.9 14.25 -1.55 14.35 -2.65 L15.15 -13.25 Q15.6 -18.15 15.55 -23.05 L15.05 -31.05 Q14.85 -31.75 13.5 -31.7 L8.2 -31.15 Q6.75 -31.0 5.5 -31.95 4.2 -32.85 4.25 -34.35 4.35 -35.85 5.55 -36.95 6.75 -38.05 8.25 -38.05 L19.7 -38.9 33.75 -39.8" fill-rule="evenodd" stroke="none"/>
    </g>
  </defs>
</svg>
