<?xml version="1.0" encoding="UTF-8" standalone="no"?>
<svg xmlns:xlink="http://www.w3.org/1999/xlink" height="7.3px" width="44.0px" xmlns="http://www.w3.org/2000/svg">
  <g transform="matrix(1.0, 0.0, 0.0, 1.0, -48.1, -3.15)">
    <g transform="matrix(1.0, 0.0, 0.0, 1.0, 47.65, 0.0)">
      <use fill="#ff6600" height="7.3" transform="matrix(0.1758, 0.0, 0.0, 0.1758, 0.0, 10.0)" width="44.0" xlink:href="#font_Comic_Sans_MS_R0"/>
      <use fill="#ff6600" height="7.3" transform="matrix(0.1758, 0.0, 0.0, 0.1758, 5.95, 10.0)" width="44.0" xlink:href="#font_Comic_Sans_MS_O0"/>
      <use fill="#ff6600" height="7.3" transform="matrix(0.1758, 0.0, 0.0, 0.1758, 13.35, 10.0)" width="44.0" xlink:href="#font_Comic_Sans_MS_U0"/>
      <use fill="#ff6600" height="7.3" transform="matrix(0.1758, 0.0, 0.0, 0.1758, 20.2, 10.0)" width="44.0" xlink:href="#font_Comic_Sans_MS_N0"/>
      <use fill="#ff6600" height="7.3" transform="matrix(0.1758, 0.0, 0.0, 0.1758, 27.7, 10.0)" width="44.0" xlink:href="#font_Comic_Sans_MS_D0"/>
      <use fill="#ff6600" height="7.3" transform="matrix(0.1758, 0.0, 0.0, 0.1758, 38.5, 10.0)" width="44.0" xlink:href="#font_Comic_Sans_MS_50"/>
    </g>
  </g>
  <defs>
    <g id="font_Comic_Sans_MS_R0">
      <path d="M13.9 -31.35 L11.9 -18.05 13.0 -18.05 Q19.15 -18.05 22.3 -19.55 23.7 -20.2 24.9 -21.3 26.15 -22.35 26.25 -22.9 26.65 -25.7 23.5 -28.3 20.5 -30.75 16.8 -31.15 L13.9 -31.35 M18.9 -37.9 Q22.3 -37.5 24.55 -36.25 34.45 -30.85 33.25 -22.9 32.75 -19.65 30.15 -17.1 27.55 -14.6 22.8 -12.9 28.85 -9.2 31.65 -5.35 32.35 -4.35 32.2 -3.1 31.95 -1.7 30.75 -0.7 29.55 0.3 28.1 0.3 26.75 0.3 25.8 -0.75 19.3 -7.85 10.65 -10.6 L9.7 -2.5 Q9.5 -1.1 8.35 -0.1 7.2 0.9 5.7 0.9 4.2 0.9 3.35 -0.1 2.5 -1.1 2.7 -2.5 L3.6 -8.1 4.45 -13.75 7.55 -33.9 Q7.8 -35.55 8.95 -36.85 10.5 -38.55 12.7 -38.4 L18.9 -37.9" fill-rule="evenodd" stroke="none"/>
    </g>
    <g id="font_Comic_Sans_MS_O0">
      <path d="M26.55 -31.1 Q21.0 -31.1 16.2 -25.7 11.7 -20.65 10.8 -14.5 10.15 -10.35 13.0 -7.75 15.7 -5.25 20.45 -5.25 25.95 -5.25 30.45 -10.65 34.55 -15.55 35.5 -21.85 36.3 -27.1 34.25 -29.15 32.3 -31.1 26.55 -31.1 M40.05 -33.85 Q43.8 -29.85 42.6 -21.85 41.3 -13.35 35.4 -6.45 28.55 1.55 19.45 1.55 12.05 1.55 7.45 -2.7 2.6 -7.25 3.7 -14.5 4.95 -23.0 11.35 -30.0 18.5 -37.85 27.55 -37.85 36.3 -37.85 40.05 -33.85" fill-rule="evenodd" stroke="none"/>
    </g>
    <g id="font_Comic_Sans_MS_U0">
      <path d="M40.4 -33.85 Q38.9 -24.0 37.15 -18.45 34.5 -9.95 29.5 -4.3 27.3 -1.85 24.5 -0.2 21.05 1.8 17.7 1.8 11.35 1.8 8.6 -0.65 2.85 -5.8 4.75 -18.6 L5.45 -22.25 6.1 -25.9 6.6 -28.8 7.05 -31.75 Q7.35 -33.75 8.35 -35.5 9.7 -37.85 11.45 -37.85 12.8 -37.85 13.75 -36.95 14.75 -36.0 14.5 -34.5 L13.85 -30.2 13.15 -25.85 12.45 -22.25 11.8 -18.6 Q11.2 -14.75 11.65 -11.4 12.1 -7.45 13.85 -5.85 14.8 -5.05 18.75 -5.0 25.3 -4.9 29.3 -16.25 31.4 -22.1 33.0 -32.75 33.2 -34.15 34.25 -35.45 35.6 -37.15 37.7 -37.15 39.4 -37.15 40.05 -35.9 40.55 -35.0 40.4 -33.85" fill-rule="evenodd" stroke="none"/>
    </g>
    <g id="font_Comic_Sans_MS_N0">
      <path d="M37.25 -35.0 Q37.8 -38.45 41.45 -38.45 45.5 -38.45 43.6 -25.9 L43.0 -21.95 40.45 -6.15 39.45 -2.2 Q38.45 1.05 35.3 1.05 33.55 1.05 31.65 -0.95 23.35 -9.6 13.6 -25.25 L12.25 -17.3 11.45 -11.35 10.6 -5.4 Q9.5 2.0 5.9 2.0 4.1 2.0 3.15 0.85 2.35 -0.15 2.55 -1.55 L3.15 -4.6 3.8 -7.6 4.55 -12.05 5.3 -16.45 5.95 -21.2 6.6 -25.95 6.95 -30.45 Q7.1 -33.4 7.35 -34.9 7.55 -36.4 9.0 -37.6 10.5 -38.75 12.15 -38.75 14.0 -38.75 15.75 -35.55 24.65 -19.35 34.2 -9.15 L34.8 -12.95 Q36.65 -25.25 37.0 -29.55 L37.1 -32.25 Q37.1 -34.0 37.25 -35.0" fill-rule="evenodd" stroke="none"/>
    </g>
    <g id="font_Comic_Sans_MS_D0">
      <path d="M33.45 -27.9 Q38.7 -22.0 37.65 -14.8 37.0 -10.5 34.3 -6.6 31.55 -2.6 27.5 -0.2 22.95 2.5 15.4 2.5 L11.3 1.95 Q8.5 1.3 7.05 0.25 5.55 0.25 4.7 -0.75 3.85 -1.75 4.05 -3.15 L5.4 -10.65 6.8 -18.15 7.9 -26.45 9.05 -34.8 Q9.25 -36.15 10.8 -37.5 12.3 -38.9 13.8 -38.9 14.65 -38.9 17.75 -37.35 L22.05 -35.25 Q29.0 -32.9 33.45 -27.9 M16.4 -4.25 Q21.8 -4.25 24.35 -5.75 26.8 -7.15 28.5 -9.6 30.15 -12.05 30.55 -14.7 31.5 -20.9 24.95 -25.45 22.75 -26.95 15.25 -30.25 L11.55 -5.5 Q12.4 -4.85 13.65 -4.55 L16.4 -4.25" fill-rule="evenodd" stroke="none"/>
    </g>
    <g id="font_Comic_Sans_MS_50">
      <path d="M23.0 -31.65 L15.55 -31.65 14.15 -26.6 Q17.65 -28.2 22.2 -28.2 28.3 -28.2 30.75 -23.7 32.85 -19.95 32.0 -14.3 30.95 -7.5 26.1 -3.05 21.05 1.6 13.85 1.6 6.2 1.6 3.35 -3.85 2.9 -4.8 3.0 -5.7 3.2 -7.05 4.45 -8.0 5.65 -8.95 7.05 -8.95 8.45 -8.95 9.25 -7.9 L10.9 -5.95 Q12.2 -4.9 14.8 -4.9 18.65 -4.9 21.65 -7.7 24.55 -10.45 25.1 -14.3 25.65 -18.05 24.7 -19.9 23.75 -21.75 21.25 -21.75 16.85 -21.75 13.75 -18.9 L11.25 -16.5 Q9.7 -15.25 8.2 -15.25 6.75 -15.25 5.95 -16.2 5.1 -17.2 5.3 -18.5 L6.35 -22.85 Q8.3 -30.2 8.65 -32.6 8.75 -33.2 8.45 -34.25 8.2 -35.3 8.3 -35.9 8.45 -37.15 9.85 -37.8 L12.25 -38.3 13.75 -38.2 15.25 -38.15 27.3 -38.1 29.25 -38.25 31.2 -38.4 Q32.55 -38.4 33.3 -37.55 34.05 -36.7 33.85 -35.35 33.3 -31.6 25.7 -31.6 L24.2 -31.65 23.0 -31.65" fill-rule="evenodd" stroke="none"/>
    </g>
  </defs>
</svg>
