<?xml version="1.0" encoding="UTF-8" standalone="no"?>
<svg xmlns:xlink="http://www.w3.org/1999/xlink" height="117.15px" width="105.4px" xmlns="http://www.w3.org/2000/svg">
  <g transform="matrix(1.0, 0.0, 0.0, 1.0, -1.3, -1.55)">
    <use data-characterId="108" height="115.0" transform="matrix(1.0, 0.0, 0.0, 1.0, 2.5, 2.5)" width="103.0" xlink:href="#shape0"/>
    <use data-characterId="109" height="3.4" transform="matrix(0.0, 1.0, -1.0, 0.0, 106.55, 1.9)" width="27.9" xlink:href="#shape1"/>
    <use data-characterId="109" height="3.4" transform="matrix(0.0, -1.0, 1.0, 0.0, 1.3, 118.3)" width="27.9" xlink:href="#shape1"/>
  </g>
  <defs>
    <g id="shape0" transform="matrix(1.0, 0.0, 0.0, 1.0, -2.5, -2.5)">
      <path d="M3.0 3.0 L105.0 3.0 105.0 117.0 3.0 117.0 3.0 3.0 Z" fill="none" stroke="#ffff00" stroke-linecap="round" stroke-linejoin="round" stroke-width="1.0"/>
    </g>
    <g id="shape1" transform="matrix(1.0, 0.0, 0.0, 1.0, 13.95, 1.7)">
      <path d="M3.55 -1.0 L4.0 0.1 3.55 1.15 Q3.1 1.6 2.5 1.6 1.85 1.6 1.45 1.15 1.0 0.7 1.0 0.1 1.0 -0.5 1.45 -1.0 1.85 -1.45 2.5 -1.45 3.1 -1.45 3.55 -1.0 M8.0 -1.35 L9.05 -0.9 Q9.5 -0.4 9.5 0.2 9.5 0.8 9.05 1.25 L8.0 1.7 Q7.35 1.7 6.95 1.25 6.5 0.8 6.5 0.2 6.5 -0.4 6.95 -0.9 7.35 -1.35 8.0 -1.35 M13.5 -1.0 L13.95 0.1 Q13.95 0.7 13.5 1.15 L12.45 1.6 Q11.8 1.6 11.4 1.15 10.95 0.7 10.95 0.1 10.95 -0.5 11.4 -1.0 11.8 -1.45 12.45 -1.45 L13.5 -1.0 M-11.35 -1.25 Q-10.9 -0.8 -10.9 -0.15 -10.9 0.45 -11.35 0.9 -11.8 1.35 -12.4 1.35 -13.05 1.35 -13.45 0.9 -13.95 0.45 -13.95 -0.15 -13.95 -0.8 -13.45 -1.25 -13.05 -1.7 -12.4 -1.7 -11.8 -1.7 -11.35 -1.25 M-6.4 -1.15 Q-5.95 -0.7 -5.95 -0.05 -5.95 0.55 -6.4 1.0 -6.85 1.45 -7.45 1.45 -8.1 1.45 -8.5 1.0 L-8.95 -0.05 -8.5 -1.15 Q-8.1 -1.6 -7.45 -1.6 -6.85 -1.6 -6.4 -1.15 M-2.6 -1.5 Q-2.0 -1.5 -1.55 -1.05 -1.1 -0.55 -1.1 0.05 -1.1 0.65 -1.55 1.1 -2.0 1.55 -2.6 1.55 -3.25 1.55 -3.65 1.1 -4.1 0.65 -4.1 0.05 -4.1 -0.55 -3.65 -1.05 -3.25 -1.5 -2.6 -1.5" fill="#ffffff" fill-rule="evenodd" stroke="none"/>
    </g>
  </defs>
</svg>
