<?xml version="1.0" encoding="UTF-8" standalone="no"?>
<svg xmlns:xlink="http://www.w3.org/1999/xlink" height="248.0px" width="19.35px" xmlns="http://www.w3.org/2000/svg">
  <g transform="matrix(1.0, 0.0, 0.0, 1.0, 11.0, 124.0)">
    <use data-characterId="59" height="3.6" transform="matrix(1.0, 0.0, 0.0, 1.0, -11.0, -67.6)" width="19.35" xlink:href="#sprite0"/>
    <use data-characterId="59" height="3.6" transform="matrix(1.0, 0.0, 0.0, 1.0, -11.0, -58.2)" width="19.35" xlink:href="#sprite0"/>
    <use data-characterId="59" height="3.6" transform="matrix(1.0, 0.0, 0.0, 1.0, -11.0, -48.8)" width="19.35" xlink:href="#sprite0"/>
    <use data-characterId="59" height="3.6" transform="matrix(1.0, 0.0, 0.0, 1.0, -11.0, -39.4)" width="19.35" xlink:href="#sprite0"/>
    <use data-characterId="59" height="3.6" transform="matrix(1.0, 0.0, 0.0, 1.0, -11.0, -30.0)" width="19.35" xlink:href="#sprite0"/>
    <use data-characterId="59" height="3.6" transform="matrix(1.0, 0.0, 0.0, 1.0, -11.0, -20.6)" width="19.35" xlink:href="#sprite0"/>
    <use data-characterId="59" height="3.6" transform="matrix(1.0, 0.0, 0.0, 1.0, -11.0, -124.0)" width="19.35" xlink:href="#sprite0"/>
    <use data-characterId="59" height="3.6" transform="matrix(1.0, 0.0, 0.0, 1.0, -11.0, -114.6)" width="19.35" xlink:href="#sprite0"/>
    <use data-characterId="59" height="3.6" transform="matrix(1.0, 0.0, 0.0, 1.0, -11.0, -105.2)" width="19.35" xlink:href="#sprite0"/>
    <use data-characterId="59" height="3.6" transform="matrix(1.0, 0.0, 0.0, 1.0, -11.0, -95.8)" width="19.35" xlink:href="#sprite0"/>
    <use data-characterId="59" height="3.6" transform="matrix(1.0, 0.0, 0.0, 1.0, -11.0, -86.4)" width="19.35" xlink:href="#sprite0"/>
    <use data-characterId="59" height="3.6" transform="matrix(1.0, 0.0, 0.0, 1.0, -11.0, -77.0)" width="19.35" xlink:href="#sprite0"/>
    <use data-characterId="59" height="3.6" transform="matrix(1.0, 0.0, 0.0, 1.0, -11.0, -1.8)" width="19.35" xlink:href="#sprite0"/>
    <use data-characterId="59" height="3.6" transform="matrix(1.0, 0.0, 0.0, 1.0, -11.0, 7.6)" width="19.35" xlink:href="#sprite0"/>
    <use data-characterId="59" height="3.6" transform="matrix(1.0, 0.0, 0.0, 1.0, -11.0, 17.0)" width="19.35" xlink:href="#sprite0"/>
    <use data-characterId="59" height="3.6" transform="matrix(1.0, 0.0, 0.0, 1.0, -11.0, 45.2)" width="19.35" xlink:href="#sprite0"/>
    <use data-characterId="59" height="3.6" transform="matrix(1.0, 0.0, 0.0, 1.0, -11.0, 64.0)" width="19.35" xlink:href="#sprite0"/>
    <use data-characterId="59" height="3.6" transform="matrix(1.0, 0.0, 0.0, 1.0, -11.0, 82.8)" width="19.35" xlink:href="#sprite0"/>
    <use data-characterId="59" height="3.6" transform="matrix(1.0, 0.0, 0.0, 1.0, -11.0, -11.2)" width="19.35" xlink:href="#sprite0"/>
    <use data-characterId="59" height="3.6" transform="matrix(1.0, 0.0, 0.0, 1.0, -11.0, 26.4)" width="19.35" xlink:href="#sprite0"/>
    <use data-characterId="59" height="3.6" transform="matrix(1.0, 0.0, 0.0, 1.0, -11.0, 54.6)" width="19.35" xlink:href="#sprite0"/>
    <use data-characterId="59" height="3.6" transform="matrix(1.0, 0.0, 0.0, 1.0, -11.0, 73.4)" width="19.35" xlink:href="#sprite0"/>
    <use data-characterId="59" height="3.6" transform="matrix(1.0, 0.0, 0.0, 1.0, -11.0, 92.2)" width="19.35" xlink:href="#sprite0"/>
    <use data-characterId="59" height="3.6" transform="matrix(1.0, 0.0, 0.0, 1.0, -11.0, 101.6)" width="19.35" xlink:href="#sprite0"/>
    <use data-characterId="59" height="3.6" transform="matrix(1.0, 0.0, 0.0, 1.0, -11.0, 111.0)" width="19.35" xlink:href="#sprite0"/>
    <use data-characterId="59" height="3.6" transform="matrix(1.0, 0.0, 0.0, 1.0, -11.0, 120.4)" width="19.35" xlink:href="#sprite0"/>
    <use data-characterId="59" height="3.6" transform="matrix(1.0, 0.0, 0.0, 1.0, -11.0, 35.8)" width="19.35" xlink:href="#sprite0"/>
  </g>
  <defs>
    <g id="sprite0" transform="matrix(1.0, 0.0, 0.0, 1.0, 11.0, 1.8)">
      <use data-characterId="58" height="3.6" transform="matrix(1.0, 0.0, 0.0, 1.0, -11.0, -1.8)" width="19.35" xlink:href="#shape0"/>
    </g>
    <g id="shape0" transform="matrix(1.0, 0.0, 0.0, 1.0, 11.0, 1.8)">
      <path d="M7.9 -1.25 L8.35 0.0 7.9 1.25 Q7.4 1.8 6.55 1.8 L-9.2 1.8 Q-10.05 1.8 -10.55 1.25 -11.0 0.7 -11.0 0.0 -11.0 -0.75 -10.55 -1.25 -10.05 -1.8 -9.2 -1.8 L6.55 -1.8 Q7.4 -1.8 7.9 -1.25" fill="#cc6600" fill-rule="evenodd" stroke="none"/>
    </g>
  </defs>
</svg>
