<?xml version="1.0" encoding="UTF-8" standalone="no"?>
<svg xmlns:xlink="http://www.w3.org/1999/xlink" height="36.85px" width="85.35px" xmlns="http://www.w3.org/2000/svg">
  <g transform="matrix(1.0, 0.0, 0.0, 1.0, 42.65, 18.4)">
    <use data-characterId="67" height="36.85" transform="matrix(1.0, 0.0, 0.0, 1.0, -42.65, -18.4)" width="85.35" xlink:href="#shape0"/>
  </g>
  <defs>
    <g id="shape0" transform="matrix(1.0, 0.0, 0.0, 1.0, 42.65, 18.4)">
      <path d="M38.05 13.8 L38.05 13.85 38.05 13.8" fill="#000033" fill-rule="evenodd" stroke="none"/>
      <path d="M38.05 13.8 Q33.4 18.45 26.85 18.45 L-26.8 18.45 Q-33.35 18.45 -37.95 13.8 -41.85 9.9 -42.5 4.75 L-42.65 4.2 -42.65 4.1 -42.65 -2.55 Q-42.65 -9.1 -37.95 -13.75 -33.3 -18.45 -26.8 -18.4 L26.85 -18.4 Q33.35 -18.45 38.05 -13.75 42.7 -9.15 42.7 -2.55 L42.7 4.1 42.7 4.2 42.6 4.65 Q41.95 9.95 38.05 13.8" fill="#330000" fill-rule="evenodd" stroke="none"/>
    </g>
  </defs>
</svg>
