<?xml version="1.0" encoding="UTF-8" standalone="no"?>
<svg xmlns:xlink="http://www.w3.org/1999/xlink" height="81.4px" width="107.0px" xmlns="http://www.w3.org/2000/svg">
  <g transform="matrix(1.0, 0.0, 0.0, 1.0, 53.0, 40.0)">
    <use data-characterId="125" height="81.0" transform="matrix(1.0, 0.0, 0.0, 1.0, -53.0, -40.0)" width="107.0" xlink:href="#button0"/>
    <use data-characterId="127" height="80.75" transform="matrix(0.5391, 0.0, 0.0, 0.5391, -18.4639, -21.3024)" width="68.5" xlink:href="#sprite0"/>
  </g>
  <defs>
    <g id="sprite0" transform="matrix(1.0, 0.0, 0.0, 1.0, 34.25, 40.35)">
      <use data-characterId="126" height="80.75" transform="matrix(1.0, 0.0, 0.0, 1.0, -34.25, -40.35)" width="68.5" xlink:href="#shape0"/>
    </g>
    <g id="shape0" transform="matrix(1.0, 0.0, 0.0, 1.0, 34.25, 40.35)">
      <path d="M31.1 -22.25 L33.25 30.95 0.05 39.4 -33.25 29.25 -31.25 -22.0 Q-17.1 -31.85 -1.85 -21.15 12.3 -30.4 31.1 -22.25 M1.8 -5.55 L3.55 -5.85 Q4.6 -4.15 3.9 -2.25 L3.95 -2.1 -6.3 -2.4 -5.0 -10.6 -25.65 -10.85 -5.0 -10.6 -6.3 -2.4 3.95 -2.1 3.9 -2.25 Q4.6 -4.15 3.55 -5.85 L1.8 -5.55 M26.1 -17.45 L4.25 -11.9 26.1 -17.45 M29.45 10.25 Q30.15 14.0 27.4 15.65 30.15 14.0 29.45 10.25 -2.05 -0.6 -29.3 9.45 L-29.05 8.4 Q-18.3 0.45 -6.3 -2.4 -18.3 0.45 -29.05 8.4 L-29.3 9.45 Q-2.05 -0.6 29.45 10.25 L29.3 9.65 Q17.7 1.9 3.9 -2.25 17.7 1.9 29.3 9.65 L29.45 10.25 M25.55 -10.3 L2.65 -10.3 25.55 -10.3 M-6.1 -12.15 L-26.9 -16.1 -6.1 -12.15 M-28.2 13.05 Q-29.6 11.55 -29.3 9.45 -29.6 11.55 -28.2 13.05" fill="#3399ff" fill-rule="evenodd" stroke="none"/>
      <path d="M-31.25 -22.0 L-30.05 -39.35 30.2 -39.3 31.1 -22.25 Q12.3 -30.4 -1.85 -21.15 -17.1 -31.85 -31.25 -22.0" fill="#140b35" fill-rule="evenodd" stroke="none"/>
      <path d="M-25.65 -10.85 L-5.0 -10.6 -6.3 -2.4 3.95 -2.1 3.9 -2.25 Q4.6 -4.15 3.55 -5.85 L1.8 -5.55 M2.65 -10.3 L25.55 -10.3 M-6.3 -2.4 Q-18.3 0.45 -29.05 8.4 L-29.3 9.45 Q-2.05 -0.6 29.45 10.25 L29.3 9.65 Q17.7 1.9 3.9 -2.25 M27.4 15.65 Q30.15 14.0 29.45 10.25 M-29.3 9.45 Q-29.6 11.55 -28.2 13.05" fill="none" stroke="#000033" stroke-linecap="round" stroke-linejoin="round" stroke-width="1.0"/>
      <path d="M4.25 -11.9 L26.1 -17.45 M-26.9 -16.1 L-6.1 -12.15" fill="none" stroke="#000033" stroke-linecap="round" stroke-linejoin="round" stroke-width="2.5"/>
      <path d="M-31.25 -22.0 L-30.05 -39.35 30.2 -39.3 31.1 -22.25 33.25 30.95 0.05 39.4 -33.25 29.25 -31.25 -22.0" fill="none" stroke="#000000" stroke-linecap="round" stroke-linejoin="round" stroke-width="2.0"/>
      <path d="M-31.25 -22.0 Q-17.1 -31.85 -1.85 -21.15 12.3 -30.4 31.1 -22.25" fill="none" stroke="#000033" stroke-linecap="round" stroke-linejoin="round" stroke-width="1.25"/>
    </g>
  </defs>
</svg>
