<?xml version="1.0" encoding="UTF-8" standalone="no"?>
<svg xmlns:xlink="http://www.w3.org/1999/xlink" height="9.85px" width="46.2px" xmlns="http://www.w3.org/2000/svg">
  <g transform="matrix(1.0, 0.0, 0.0, 1.0, 25.5, 3.4)">
    <use data-characterId="22" height="9.8" transform="matrix(1.0, 0.0, 0.0, 1.0029, -25.5, -3.3905)" width="46.2" xlink:href="#text0"/>
  </g>
  <defs>
    <g id="text0" transform="matrix(1.0, 0.0, 0.0, 1.0, -0.25, -3.3)">
      <g transform="matrix(1.0, 0.0, 0.0, 1.0, 0.0, 0.0)">
        <use fill="#999999" height="9.8" transform="matrix(0.2344, 0.0, 0.0, 0.2344, 0.0, 13.0)" width="46.2" xlink:href="#font_ComicBook_Normal_S0"/>
        <use fill="#999999" height="9.8" transform="matrix(0.2344, 0.0, 0.0, 0.2344, 9.85, 13.0)" width="46.2" xlink:href="#font_ComicBook_Normal_O0"/>
        <use fill="#999999" height="9.8" transform="matrix(0.2344, 0.0, 0.0, 0.2344, 20.05, 13.0)" width="46.2" xlink:href="#font_ComicBook_Normal_U0"/>
        <use fill="#999999" height="9.8" transform="matrix(0.2344, 0.0, 0.0, 0.2344, 29.5, 13.0)" width="46.2" xlink:href="#font_ComicBook_Normal_N0"/>
        <use fill="#999999" height="9.8" transform="matrix(0.2344, 0.0, 0.0, 0.2344, 37.05, 13.0)" width="46.2" xlink:href="#font_ComicBook_Normal_D0"/>
      </g>
    </g>
    <g id="font_ComicBook_Normal_S0">
      <path d="M24.05 -38.8 Q28.8 -40.15 30.9 -39.9 33.9 -39.6 35.45 -35.1 36.65 -31.8 36.4 -29.25 36.25 -27.5 33.4 -27.1 32.2 -27.0 30.9 -28.45 29.3 -30.25 28.4 -30.55 L25.45 -31.1 23.75 -30.85 Q16.4 -28.65 11.6 -25.15 9.95 -23.95 9.95 -22.65 9.95 -20.4 18.85 -20.15 L37.3 -19.85 Q39.9 -19.05 40.85 -15.4 L41.0 -14.1 Q41.0 -9.25 33.3 -4.45 25.8 0.2 19.4 0.2 14.9 0.15 11.9 -1.0 8.95 -2.05 5.15 -5.1 3.35 -7.9 3.35 -9.25 3.35 -10.65 5.1 -10.65 6.0 -10.65 8.35 -9.55 13.35 -7.25 18.1 -7.25 21.35 -7.25 24.45 -8.35 L29.65 -10.45 Q31.55 -11.25 31.55 -11.85 31.55 -12.55 29.5 -13.3 L24.7 -13.65 18.7 -13.95 10.85 -15.25 Q6.45 -16.0 4.1 -17.45 1.2 -19.2 1.05 -22.35 0.95 -25.7 3.05 -28.25 4.9 -30.45 8.3 -32.2 L14.75 -35.3 Q19.15 -37.45 24.05 -38.8" fill-rule="evenodd" stroke="none"/>
    </g>
    <g id="font_ComicBook_Normal_O0">
      <path d="M30.95 -38.8 Q34.1 -37.65 35.55 -35.75 40.1 -29.95 40.1 -22.4 40.1 -14.65 35.35 -8.05 32.55 -4.15 27.85 -2.0 23.55 0.0 18.7 0.0 14.0 0.0 10.2 -1.8 6.05 -3.75 3.95 -7.2 1.4 -11.3 1.4 -16.0 1.4 -21.75 5.05 -27.85 7.85 -32.55 11.35 -35.5 16.55 -39.95 23.95 -39.95 27.65 -39.95 30.95 -38.8 M29.4 -30.2 Q27.25 -32.05 23.35 -32.05 20.05 -32.05 17.1 -30.65 13.85 -29.15 12.2 -26.25 9.55 -21.75 9.55 -16.45 9.55 -12.65 11.35 -10.8 13.9 -8.1 18.35 -8.1 24.0 -8.1 27.7 -12.15 32.45 -17.3 32.45 -23.25 32.45 -27.5 29.4 -30.2" fill-rule="evenodd" stroke="none"/>
    </g>
    <g id="font_ComicBook_Normal_U0">
      <path d="M30.7 -28.2 L30.5 -30.95 Q30.4 -32.6 30.8 -33.75 32.7 -40.15 35.1 -40.15 36.4 -40.15 37.7 -39.15 39.0 -38.25 39.0 -36.95 L38.9 -36.55 Q36.6 -27.55 36.3 -22.1 L36.05 -15.55 Q36.05 -9.15 38.7 -3.85 L39.1 -2.6 Q39.1 -0.6 34.15 -0.65 L30.25 -1.45 27.7 -2.4 Q20.85 0.6 16.85 0.35 1.75 -0.4 1.5 -9.2 1.4 -13.8 2.65 -19.05 L4.75 -28.5 4.85 -31.6 Q4.75 -33.5 5.0 -34.65 5.2 -36.2 6.5 -37.1 7.7 -38.0 9.4 -37.95 11.1 -37.85 12.2 -36.1 L13.25 -32.25 13.5 -30.65 Q13.5 -29.25 12.65 -27.05 L11.45 -23.4 9.45 -12.9 Q9.0 -10.95 9.05 -10.15 9.25 -7.85 13.45 -7.85 L18.3 -8.3 Q28.35 -9.35 28.75 -13.95 L30.7 -28.2" fill-rule="evenodd" stroke="none"/>
    </g>
    <g id="font_ComicBook_Normal_N0">
      <path d="M23.45 -35.8 Q23.45 -37.25 23.85 -38.5 24.95 -41.55 27.5 -41.4 28.9 -41.35 29.7 -40.3 30.65 -39.3 30.65 -38.0 30.65 -35.4 29.75 -31.4 28.8 -27.2 28.75 -24.95 L28.7 -22.2 Q28.7 -19.2 29.1 -15.05 L29.95 -7.15 Q30.3 -4.75 27.95 -3.25 25.95 -2.05 23.4 -2.05 20.95 -2.05 17.95 -4.8 14.8 -7.6 9.4 -14.3 L8.55 -13.95 Q8.2 -13.9 8.2 -13.45 7.95 -8.45 8.5 -4.25 8.9 -1.8 6.3 -0.65 5.25 -0.2 4.2 -0.2 2.15 -0.2 1.6 -2.75 1.3 -4.2 1.3 -5.65 1.3 -7.3 2.0 -11.05 2.75 -14.8 2.65 -16.85 L2.9 -23.9 Q2.9 -28.85 1.35 -32.7 L1.15 -33.85 Q1.15 -35.1 1.9 -36.1 2.75 -37.15 4.05 -37.2 L4.05 -37.25 Q7.05 -37.4 9.6 -33.7 10.45 -32.45 10.65 -30.6 10.95 -28.05 11.3 -27.25 L12.15 -24.55 Q12.55 -23.35 13.3 -22.05 14.8 -19.7 17.4 -16.7 20.2 -13.6 21.1 -13.45 22.25 -13.3 22.7 -16.05 L22.85 -19.75 22.8 -21.1 23.45 -35.8" fill-rule="evenodd" stroke="none"/>
    </g>
    <g id="font_ComicBook_Normal_D0">
      <path d="M21.8 -39.85 L30.55 -40.45 33.85 -40.15 Q39.95 -38.6 40.1 -35.35 40.35 -30.55 36.15 -23.3 31.85 -15.7 25.2 -9.6 17.55 -2.65 9.75 -0.2 7.6 0.5 5.4 0.5 3.35 0.5 2.2 -0.2 L2.05 -0.95 2.8 -7.75 Q3.5 -13.35 3.6 -16.7 3.7 -19.65 3.25 -23.6 L2.8 -29.8 2.95 -32.7 Q3.15 -34.95 4.15 -36.35 5.3 -38.1 7.05 -38.2 L7.1 -38.2 14.15 -38.95 21.8 -39.85 M30.15 -32.95 L22.4 -32.1 Q18.65 -32.0 11.8 -30.15 L9.7 -10.55 9.8 -9.65 Q10.25 -8.85 11.3 -8.85 12.35 -8.85 14.15 -9.7 18.8 -11.6 23.7 -16.45 27.6 -20.3 30.7 -24.95 33.35 -29.05 33.45 -30.25 33.5 -32.95 30.15 -32.95" fill-rule="evenodd" stroke="none"/>
    </g>
  </defs>
</svg>
