<?xml version="1.0" encoding="UTF-8" standalone="no"?>
<svg xmlns:xlink="http://www.w3.org/1999/xlink" height="226.8px" width="14.7px" xmlns="http://www.w3.org/2000/svg">
  <g transform="matrix(1.0, 0.0, 0.0, 1.0, 7.35, 113.4)">
    <use data-characterId="77" height="1.3" transform="matrix(1.1571, 0.0, 0.0, 1.0, -7.285, -113.4)" width="12.65" xlink:href="#sprite0"/>
    <use data-characterId="78" height="1.3" transform="matrix(1.1571, 0.0, 0.0, 1.0, -7.285, -102.4)" width="12.65" xlink:href="#sprite1"/>
    <use data-characterId="78" height="1.3" transform="matrix(0.6774, 0.0, 0.0, 1.0, -7.3581, -107.9)" width="12.65" xlink:href="#sprite1"/>
    <use data-characterId="78" height="1.3" transform="matrix(0.6774, 0.0, 0.0, 1.0, -7.3581, -96.9)" width="12.65" xlink:href="#sprite1"/>
    <use data-characterId="78" height="1.3" transform="matrix(1.1571, 0.0, 0.0, 1.0, -7.285, -91.4)" width="12.65" xlink:href="#sprite1"/>
    <use data-characterId="78" height="1.3" transform="matrix(1.1571, 0.0, 0.0, 1.0, -7.285, -80.4)" width="12.65" xlink:href="#sprite1"/>
    <use data-characterId="78" height="1.3" transform="matrix(0.6774, 0.0, 0.0, 1.0, -7.3581, -85.9)" width="12.65" xlink:href="#sprite1"/>
    <use data-characterId="78" height="1.3" transform="matrix(0.6774, 0.0, 0.0, 1.0, -7.3581, -74.9)" width="12.65" xlink:href="#sprite1"/>
    <use data-characterId="78" height="1.3" transform="matrix(1.1571, 0.0, 0.0, 1.0, -7.285, -69.4)" width="12.65" xlink:href="#sprite1"/>
    <use data-characterId="78" height="1.3" transform="matrix(0.6774, 0.0, 0.0, 1.0, -7.3581, -63.9)" width="12.65" xlink:href="#sprite1"/>
    <use data-characterId="78" height="1.3" transform="matrix(1.1571, 0.0, 0.0, 1.0, -7.285, -58.4)" width="12.65" xlink:href="#sprite1"/>
    <use data-characterId="78" height="1.3" transform="matrix(0.6774, 0.0, 0.0, 1.0, -7.3581, -52.9)" width="12.65" xlink:href="#sprite1"/>
    <use data-characterId="78" height="1.3" transform="matrix(1.1571, 0.0, 0.0, 1.0, -7.285, -47.4)" width="12.65" xlink:href="#sprite1"/>
    <use data-characterId="78" height="1.3" transform="matrix(0.6774, 0.0, 0.0, 1.0, -7.3581, -41.9)" width="12.65" xlink:href="#sprite1"/>
    <use data-characterId="78" height="1.3" transform="matrix(1.1571, 0.0, 0.0, 1.0, -7.285, -36.4)" width="12.65" xlink:href="#sprite1"/>
    <use data-characterId="78" height="1.3" transform="matrix(0.6774, 0.0, 0.0, 1.0, -7.3581, -30.9)" width="12.65" xlink:href="#sprite1"/>
    <use data-characterId="78" height="1.3" transform="matrix(1.1571, 0.0, 0.0, 1.0, -7.285, -25.4)" width="12.65" xlink:href="#sprite1"/>
    <use data-characterId="78" height="1.3" transform="matrix(0.6774, 0.0, 0.0, 1.0, -7.3581, -19.9)" width="12.65" xlink:href="#sprite1"/>
    <use data-characterId="77" height="1.3" transform="matrix(1.1571, 0.0, 0.0, 1.0, -7.285, -14.4)" width="12.65" xlink:href="#sprite0"/>
    <use data-characterId="78" height="1.3" transform="matrix(0.6774, 0.0, 0.0, 1.0, -7.3581, -8.9)" width="12.65" xlink:href="#sprite1"/>
    <use data-characterId="78" height="1.3" transform="matrix(1.1571, 0.0, 0.0, 1.0, -7.285, -3.4)" width="12.65" xlink:href="#sprite1"/>
    <use data-characterId="77" height="1.3" transform="matrix(0.6774, 0.0, 0.0, 1.0, -7.3581, 2.1)" width="12.65" xlink:href="#sprite0"/>
    <use data-characterId="78" height="1.3" transform="matrix(1.1571, 0.0, 0.0, 1.0, -7.285, 7.6)" width="12.65" xlink:href="#sprite1"/>
    <use data-characterId="78" height="1.3" transform="matrix(0.6774, 0.0, 0.0, 1.0, -7.3581, 13.1)" width="12.65" xlink:href="#sprite1"/>
    <use data-characterId="78" height="1.3" transform="matrix(0.6774, 0.0, 0.0, 1.0, -7.3581, 24.1)" width="12.65" xlink:href="#sprite1"/>
    <use data-characterId="78" height="1.3" transform="matrix(1.1571, 0.0, 0.0, 1.0, -7.285, 29.6)" width="12.65" xlink:href="#sprite1"/>
    <use data-characterId="78" height="1.3" transform="matrix(1.1571, 0.0, 0.0, 1.0, -7.285, 18.6)" width="12.65" xlink:href="#sprite1"/>
    <use data-characterId="78" height="1.3" transform="matrix(0.6774, 0.0, 0.0, 1.0, -7.3581, 35.1)" width="12.65" xlink:href="#sprite1"/>
    <use data-characterId="78" height="1.3" transform="matrix(1.1571, 0.0, 0.0, 1.0, -7.285, 40.6)" width="12.65" xlink:href="#sprite1"/>
    <use data-characterId="78" height="1.3" transform="matrix(1.1571, 0.0, 0.0, 1.0, -7.285, 51.6)" width="12.65" xlink:href="#sprite1"/>
    <use data-characterId="78" height="1.3" transform="matrix(0.6774, 0.0, 0.0, 1.0, -7.3581, 46.1)" width="12.65" xlink:href="#sprite1"/>
    <use data-characterId="78" height="1.3" transform="matrix(0.6774, 0.0, 0.0, 1.0, -7.3581, 57.1)" width="12.65" xlink:href="#sprite1"/>
    <use data-characterId="78" height="1.3" transform="matrix(1.1571, 0.0, 0.0, 1.0, -7.285, 62.6)" width="12.65" xlink:href="#sprite1"/>
    <use data-characterId="78" height="1.3" transform="matrix(0.6774, 0.0, 0.0, 1.0, -7.3581, 68.1)" width="12.65" xlink:href="#sprite1"/>
    <use data-characterId="78" height="1.3" transform="matrix(1.1571, 0.0, 0.0, 1.0, -7.285, 73.6)" width="12.65" xlink:href="#sprite1"/>
    <use data-characterId="78" height="1.3" transform="matrix(0.6774, 0.0, 0.0, 1.0, -7.3581, 79.1)" width="12.65" xlink:href="#sprite1"/>
    <use data-characterId="78" height="1.3" transform="matrix(1.1571, 0.0, 0.0, 1.0, -7.285, 84.6)" width="12.65" xlink:href="#sprite1"/>
    <use data-characterId="78" height="1.3" transform="matrix(1.1571, 0.0, 0.0, 1.0, -7.285, 95.6)" width="12.65" xlink:href="#sprite1"/>
    <use data-characterId="78" height="1.3" transform="matrix(0.6774, 0.0, 0.0, 1.0, -7.3581, 90.1)" width="12.65" xlink:href="#sprite1"/>
    <use data-characterId="78" height="1.3" transform="matrix(0.6774, 0.0, 0.0, 1.0, -7.3581, 101.1)" width="12.65" xlink:href="#sprite1"/>
    <use data-characterId="78" height="1.3" transform="matrix(1.1571, 0.0, 0.0, 1.0, -7.285, 106.6)" width="12.65" xlink:href="#sprite1"/>
    <use data-characterId="78" height="1.3" transform="matrix(0.6774, 0.0, 0.0, 1.0, -7.3081, 112.1)" width="12.65" xlink:href="#sprite1"/>
  </g>
  <defs>
    <g id="sprite0" transform="matrix(1.0, 0.0, 0.0, 1.0, 8.5, 1.25)">
      <use data-characterId="76" height="1.3" transform="matrix(1.0, 0.0, 0.0, 1.0, -8.5, -1.25)" width="12.65" xlink:href="#shape0"/>
    </g>
    <g id="shape0" transform="matrix(1.0, 0.0, 0.0, 1.0, 8.5, 1.25)">
      <path d="M4.15 -1.25 L4.15 0.05 -8.5 0.05 -8.5 -1.25 4.15 -1.25" fill="#3366ff" fill-opacity="0.69803923" fill-rule="evenodd" stroke="none"/>
    </g>
    <g id="sprite1" transform="matrix(1.0, 0.0, 0.0, 1.0, 8.5, 1.25)">
      <use data-characterId="76" height="1.3" transform="matrix(1.0, 0.0, 0.0, 1.0, -8.5, -1.25)" width="12.65" xlink:href="#shape0"/>
    </g>
  </defs>
</svg>
