<?xml version="1.0" encoding="UTF-8" standalone="no"?>
<svg xmlns:xlink="http://www.w3.org/1999/xlink" height="238.65px" width="47.5px" xmlns="http://www.w3.org/2000/svg">
  <g transform="matrix(1.0, 0.0, 0.0, 1.0, 0.0, 0.0)">
    <use data-characterId="43" height="238.65" transform="matrix(1.0, 0.0, 0.0, 1.0, 0.0, 0.0)" width="47.5" xlink:href="#shape0"/>
  </g>
  <defs>
    <g id="shape0" transform="matrix(1.0, 0.0, 0.0, 1.0, 0.0, 0.0)">
      <path d="M45.65 238.65 L43.0 238.65 43.0 0.0 45.65 0.0 45.65 238.65 M2.4 238.65 L0.0 238.65 0.0 0.45 0.05 0.45 0.05 0.0 2.4 0.0 2.4 238.65" fill="#663300" fill-rule="evenodd" stroke="none"/>
      <path d="M43.0 238.65 L38.05 238.65 38.05 0.0 43.0 0.0 43.0 238.65 M34.45 238.65 L29.5 238.65 29.5 0.0 34.45 0.0 34.45 238.65" fill="#cc6600" fill-rule="evenodd" stroke="none"/>
      <path d="M38.05 238.65 L35.05 238.65 35.05 0.0 38.05 0.0 38.05 238.65 M29.5 238.65 L19.3 238.65 19.3 0.0 29.5 0.0 29.5 238.65 M17.8 238.65 L16.7 238.65 16.7 0.0 17.8 0.0 17.8 238.65" fill="#ff9933" fill-rule="evenodd" stroke="none"/>
      <path d="M45.65 0.0 L47.5 0.0 47.5 238.65 45.65 238.65 45.65 0.0" fill="#330000" fill-rule="evenodd" stroke="none"/>
      <path d="M13.4 238.65 L2.4 238.65 2.4 0.0 13.4 0.0 13.4 238.65" fill="#ff9900" fill-rule="evenodd" stroke="none"/>
      <path d="M16.7 238.65 L13.4 238.65 13.4 0.0 16.7 0.0 16.7 238.65" fill="#ffcc99" fill-rule="evenodd" stroke="none"/>
      <path d="M35.05 238.65 L34.45 238.65 34.45 0.0 35.05 0.0 35.05 238.65 M19.3 238.65 L17.8 238.65 17.8 0.0 19.3 0.0 19.3 238.65" fill="#ffcc33" fill-rule="evenodd" stroke="none"/>
    </g>
  </defs>
</svg>
