<?xml version="1.0" encoding="UTF-8" standalone="no"?>
<svg xmlns:xlink="http://www.w3.org/1999/xlink" height="345.0px" width="530.0px" xmlns="http://www.w3.org/2000/svg">
  <g transform="matrix(1.0, 0.0, 0.0, 1.0, 0.0, 0.0)">
    <use data-characterId="56" height="345.0" transform="matrix(1.0, 0.0, 0.0, 1.0, 0.0, 0.0)" width="530.0" xlink:href="#shape0"/>
  </g>
  <defs>
    <g id="shape0" transform="matrix(1.0, 0.0, 0.0, 1.0, 0.0, 0.0)">
      <path d="M524.1 5.9 L524.1 5.95 524.05 5.95 524.1 5.9" fill="#ff3366" fill-rule="evenodd" stroke="none"/>
      <path d="M3.8 341.2 Q1.5 338.9 0.6 336.05 0.0 334.15 0.0 332.0 L0.0 13.0 Q0.0 7.6 3.8 3.8 7.55 0.05 12.8 0.0 L13.0 0.0 517.0 0.0 517.25 0.0 520.05 0.35 Q523.5 1.1 526.2 3.8 L524.1 5.9 523.55 5.4 Q521.95 4.0 520.05 3.45 L517.25 3.0 517.0 3.0 13.0 3.0 12.8 3.0 Q9.15 3.05 6.5 5.4 L5.95 5.9 5.4 6.5 Q3.0 9.15 3.0 13.0 L3.0 332.0 Q3.0 334.2 3.8 336.05 4.4 337.4 5.4 338.55 L5.95 339.1 3.8 341.2" fill="#cc6600" fill-rule="evenodd" stroke="none"/>
      <path d="M526.2 3.8 Q528.5 6.1 529.4 8.95 530.0 10.85 530.0 13.0 L530.0 332.0 529.95 333.5 Q529.45 337.95 526.2 341.2 522.5 344.9 517.25 345.0 L517.0 345.0 13.0 345.0 10.6 344.8 Q6.75 344.15 3.8 341.2 L5.95 339.1 6.0 339.1 8.0 340.7 Q10.2 342.0 13.0 342.0 L517.0 342.0 517.25 342.0 Q519.95 341.95 522.1 340.7 L524.1 339.05 524.3 338.85 Q526.5 336.55 526.9 333.5 L527.0 332.0 527.0 13.0 Q527.0 10.8 526.2 8.95 L526.15 8.9 Q525.5 7.4 524.3 6.15 L524.1 5.95 524.1 5.9 526.2 3.8" fill="#663300" fill-rule="evenodd" stroke="none"/>
      <path d="M524.1 5.95 L524.3 6.15 Q525.5 7.4 526.15 8.9 L526.2 8.95 Q527.0 10.8 527.0 13.0 L527.0 332.0 526.9 333.5 Q526.5 336.55 524.3 338.85 L524.1 339.05 522.1 340.7 Q519.95 341.95 517.25 342.0 L517.0 342.0 13.0 342.0 Q10.2 342.0 8.0 340.7 L6.0 339.1 5.95 339.1 5.4 338.55 Q4.4 337.4 3.8 336.05 3.0 334.2 3.0 332.0 L3.0 13.0 Q3.0 9.15 5.4 6.5 L5.95 5.9 6.5 5.4 Q9.15 3.05 12.8 3.0 L13.0 3.0 517.0 3.0 517.25 3.0 520.05 3.45 Q521.95 4.0 523.55 5.4 L524.1 5.9 524.05 5.95 524.1 5.95 M515.0 268.95 L15.15 268.95 15.15 332.85 514.95 332.85 515.0 290.35 515.0 268.95 M488.35 14.55 L440.85 14.55 440.85 252.75 488.35 252.75 488.35 14.55 M424.0 253.05 L424.0 15.0 106.0 15.0 106.0 253.05 424.0 253.05 M515.0 334.4 L515.05 334.4 515.05 334.35 515.0 334.4 M500.05 334.4 L500.1 334.4 500.05 334.35 500.05 334.4" fill="url(#gradient0)" fill-rule="evenodd" stroke="none"/>
    </g>
    <linearGradient gradientTransform="matrix(0.2846, 0.2572, -0.1385, 0.1533, 230.45, 132.5)" gradientUnits="userSpaceOnUse" id="gradient0" spreadMethod="pad" x1="-819.2" x2="819.2">
      <stop offset="0.09803921568627451" stop-color="#cc6600"/>
      <stop offset="0.2235294117647059" stop-color="#663300"/>
      <stop offset="0.3058823529411765" stop-color="#cc6600"/>
      <stop offset="0.4745098039215686" stop-color="#783d01"/>
      <stop offset="0.6313725490196078" stop-color="#663300"/>
      <stop offset="0.7647058823529411" stop-color="#934004"/>
      <stop offset="0.8666666666666667" stop-color="#a35101"/>
      <stop offset="0.9333333333333333" stop-color="#cc6600"/>
    </linearGradient>
  </defs>
</svg>
