<?xml version="1.0" encoding="UTF-8" standalone="no"?>
<svg xmlns:xlink="http://www.w3.org/1999/xlink" height="255.7px" width="47.5px" xmlns="http://www.w3.org/2000/svg">
  <g transform="matrix(1.0, 0.0, 0.0, 1.0, 0.0, -224.55)">
    <use data-characterId="44" height="238.65" id="fluid" transform="matrix(1.0, 0.0, 0.0, 0.9815, 0.0, 243.0)" width="47.5" xlink:href="#sprite0"/>
    <use data-characterId="50" height="16.8" id="bubbles" transform="matrix(1.0, 0.0, 0.0, 1.0, 4.2503, 229.0002)" width="39.55" xlink:href="#sprite1"/>
  </g>
  <defs>
    <g id="sprite0" transform="matrix(1.0, 0.0, 0.0, 1.0, 0.0, 0.0)">
      <use data-characterId="43" height="238.65" transform="matrix(1.0, 0.0, 0.0, 1.0, 0.0, 0.0)" width="47.5" xlink:href="#shape0"/>
    </g>
    <g id="shape0" transform="matrix(1.0, 0.0, 0.0, 1.0, 0.0, 0.0)">
      <path d="M45.65 238.65 L43.0 238.65 43.0 0.0 45.65 0.0 45.65 238.65 M2.4 238.65 L0.0 238.65 0.0 0.45 0.05 0.45 0.05 0.0 2.4 0.0 2.4 238.65" fill="#a38400" fill-rule="evenodd" stroke="none"/>
      <path d="M43.0 238.65 L38.05 238.65 38.05 0.0 43.0 0.0 43.0 238.65 M34.45 238.65 L29.5 238.65 29.5 0.0 34.45 0.0 34.45 238.65" fill="#e0a300" fill-rule="evenodd" stroke="none"/>
      <path d="M38.05 238.65 L35.05 238.65 35.05 0.0 38.05 0.0 38.05 238.65 M29.5 238.65 L19.3 238.65 19.3 0.0 29.5 0.0 29.5 238.65 M17.8 238.65 L16.7 238.65 16.7 0.0 17.8 0.0 17.8 238.65" fill="#ffc21e" fill-rule="evenodd" stroke="none"/>
      <path d="M45.65 0.0 L47.5 0.0 47.5 238.65 45.65 238.65 45.65 0.0" fill="#846600" fill-rule="evenodd" stroke="none"/>
      <path d="M13.4 238.65 L2.4 238.65 2.4 0.0 13.4 0.0 13.4 238.65" fill="#ffc200" fill-rule="evenodd" stroke="none"/>
      <path d="M16.7 238.65 L13.4 238.65 13.4 0.0 16.7 0.0 16.7 238.65" fill="#ffe05c" fill-rule="evenodd" stroke="none"/>
      <path d="M35.05 238.65 L34.45 238.65 34.45 0.0 35.05 0.0 35.05 238.65 M19.3 238.65 L17.8 238.65 17.8 0.0 19.3 0.0 19.3 238.65" fill="#ffe01e" fill-rule="evenodd" stroke="none"/>
    </g>
    <g id="sprite1" transform="matrix(1.0, 0.0, 0.0, 1.0, 19.8, 11.35)">
      <use data-characterId="49" height="18.65" transform="matrix(0.8218, 0.0, 0.0, 0.8218, 4.5896, -10.8276)" width="9.35" xlink:href="#sprite2"/>
    </g>
    <g id="sprite2" transform="matrix(1.0, 0.0, 0.0, 1.0, 4.15, 27.9)">
      <use data-characterId="46" height="10.0" transform="matrix(0.9, 0.0, 0.0, 0.9, -3.95, -18.25)" width="10.0" xlink:href="#sprite3"/>
    </g>
    <g id="sprite3" transform="matrix(1.0, 0.0, 0.0, 1.0, 5.0, 5.0)">
      <use data-characterId="45" height="10.0" transform="matrix(1.0, 0.0, 0.0, 1.0, -5.0, -5.0)" width="10.0" xlink:href="#shape1"/>
    </g>
    <g id="shape1" transform="matrix(1.0, 0.0, 0.0, 1.0, 5.0, 5.0)">
      <path d="M-1.55 -3.4 Q-1.1 -3.35 -0.9 -3.05 -0.7 -2.7 -0.9 -2.3 L-1.5 -1.65 Q-1.95 -1.4 -2.35 -1.45 -2.8 -1.5 -3.0 -1.8 -3.2 -2.15 -3.0 -2.55 L-2.4 -3.2 -1.55 -3.4" fill="#ffffff" fill-opacity="0.65882355" fill-rule="evenodd" stroke="none"/>
      <path d="M3.55 3.55 Q2.05 5.0 0.0 5.0 -2.1 5.0 -3.55 3.55 -5.0 2.1 -5.0 0.0 -5.0 -2.05 -3.55 -3.5 -2.1 -5.0 0.0 -5.0 2.05 -5.0 3.55 -3.5 5.0 -2.05 5.0 0.0 5.0 2.1 3.55 3.55 M3.3 3.35 Q4.65 1.95 4.7 0.0 4.65 -1.95 3.3 -3.3 1.9 -4.65 0.0 -4.65 -1.95 -4.65 -3.3 -3.3 -4.7 -1.95 -4.7 0.0 -4.7 1.95 -3.3 3.35 -1.95 4.7 0.0 4.7 1.9 4.7 3.3 3.35" fill="#ffff99" fill-opacity="0.65882355" fill-rule="evenodd" stroke="none"/>
      <path d="M2.7 -3.2 Q3.95 -2.0 3.95 -0.25 3.95 1.5 2.7 2.75 1.45 3.95 -0.25 3.95 -2.05 3.95 -3.25 2.75 L-4.2 1.4 Q-3.9 2.35 -3.1 3.1 -1.85 4.4 0.0 4.4 1.8 4.4 3.1 3.1 4.35 1.8 4.35 0.0 4.35 -1.8 3.1 -3.05 2.3 -3.85 1.35 -4.15 L2.7 -3.2 M3.3 3.35 Q1.9 4.7 0.0 4.7 -1.95 4.7 -3.3 3.35 -4.7 1.95 -4.7 0.0 -4.7 -1.95 -3.3 -3.3 -1.95 -4.65 0.0 -4.65 1.9 -4.65 3.3 -3.3 4.65 -1.95 4.7 0.0 4.65 1.95 3.3 3.35 M-1.55 -3.4 L-2.4 -3.2 -3.0 -2.55 Q-3.2 -2.15 -3.0 -1.8 -2.8 -1.5 -2.35 -1.45 -1.95 -1.4 -1.5 -1.65 L-0.9 -2.3 Q-0.7 -2.7 -0.9 -3.05 -1.1 -3.35 -1.55 -3.4" fill="#ffff33" fill-opacity="0.65882355" fill-rule="evenodd" stroke="none"/>
      <path d="M2.7 -3.2 L1.35 -4.15 Q2.3 -3.85 3.1 -3.05 4.35 -1.8 4.35 0.0 4.35 1.8 3.1 3.1 1.8 4.4 0.0 4.4 -1.85 4.4 -3.1 3.1 -3.9 2.35 -4.2 1.4 L-3.25 2.75 Q-2.05 3.95 -0.25 3.95 1.45 3.95 2.7 2.75 3.95 1.5 3.95 -0.25 3.95 -2.0 2.7 -3.2" fill="#ffcc33" fill-opacity="0.65882355" fill-rule="evenodd" stroke="none"/>
    </g>
  </defs>
</svg>
