<?xml version="1.0" encoding="UTF-8" standalone="no"?>
<svg xmlns:xlink="http://www.w3.org/1999/xlink" height="375.0px" width="640.0px" xmlns="http://www.w3.org/2000/svg">
  <g transform="matrix(1.0, 0.0, 0.0, 1.0, 0.0, 0.0)">
    <use data-characterId="42" height="15.2" transform="matrix(28.6357, 0.0, 0.0, 31.9082, 0.0123, -0.002)" width="22.35" xlink:href="#sprite0"/>
    <use data-characterId="33" height="12.0" transform="matrix(1.0, 0.0, 0.0, 1.0, 73.5, 85.5)" width="68.0" xlink:href="#button0"/>
    <use data-characterId="34" height="12.0" transform="matrix(1.0, 0.0, 0.0, 1.0, 73.5, 115.5)" width="68.0" xlink:href="#button1"/>
    <use data-characterId="35" height="12.0" transform="matrix(1.0, 0.0, 0.0, 1.0, 73.5, 129.5)" width="68.0" xlink:href="#button2"/>
    <use data-characterId="36" height="12.0" transform="matrix(1.0, 0.0, 0.0, 1.0, 73.5, 144.5)" width="68.0" xlink:href="#button3"/>
    <use data-characterId="37" height="12.0" transform="matrix(1.0, 0.0, 0.0, 1.0, 73.5, 159.5)" width="68.0" xlink:href="#button4"/>
    <use data-characterId="38" height="12.0" transform="matrix(1.0, 0.0, 0.0, 1.0, 73.5, 173.5)" width="68.0" xlink:href="#button5"/>
    <use data-characterId="39" height="12.0" transform="matrix(1.0, 0.0, 0.0, 1.0, 73.5, 72.5)" width="68.0" xlink:href="#button6"/>
    <use data-characterId="40" height="12.0" transform="matrix(1.0, 0.0, 0.0, 1.0, 73.5, 101.5)" width="68.0" xlink:href="#button7"/>
  </g>
  <defs>
    <g id="sprite0" transform="matrix(1.0, 0.0, 0.0, 1.0, 11.15, 7.6)">
      <use data-characterId="41" height="81.0" transform="matrix(0.2089, 0.0, 0.0, 0.1877, -11.15, -7.6)" width="107.0" xlink:href="#shape0"/>
    </g>
    <g id="shape0" transform="matrix(1.0, 0.0, 0.0, 1.0, 0.0, 0.0)">
      <path d="M107.0 81.0 L0.0 81.0 0.0 0.0 107.0 0.0 107.0 81.0" fill="#000000" fill-rule="evenodd" stroke="none"/>
    </g>
    <g id="button0" transform="matrix(1.0, 0.0, 0.0, 1.0, 34.0, 6.0)">
      <use data-characterId="32" height="12.0" transform="matrix(1.0, 0.0, 0.0, 1.0, -34.0, -6.0)" width="68.0" xlink:href="#shape1"/>
    </g>
    <g id="shape1" transform="matrix(1.0, 0.0, 0.0, 1.0, 34.0, 6.0)">
      <path d="M-33.5 -5.5 L33.5 -5.5 33.5 5.5 -33.5 5.5 -33.5 -5.5" fill="#ffffff" fill-opacity="0.0" fill-rule="evenodd" stroke="none"/>
      <path d="M-33.5 -5.5 L33.5 -5.5 33.5 5.5 -33.5 5.5 -33.5 -5.5 Z" fill="none" stroke="#000000" stroke-linecap="round" stroke-linejoin="round" stroke-opacity="0.0" stroke-width="1.0"/>
    </g>
    <g id="button1" transform="matrix(1.0, 0.0, 0.0, 1.0, 34.0, 6.0)">
      <use data-characterId="32" height="12.0" transform="matrix(1.0, 0.0, 0.0, 1.0, -34.0, -6.0)" width="68.0" xlink:href="#shape1"/>
    </g>
    <g id="button2" transform="matrix(1.0, 0.0, 0.0, 1.0, 34.0, 6.0)">
      <use data-characterId="32" height="12.0" transform="matrix(1.0, 0.0, 0.0, 1.0, -34.0, -6.0)" width="68.0" xlink:href="#shape1"/>
    </g>
    <g id="button3" transform="matrix(1.0, 0.0, 0.0, 1.0, 34.0, 6.0)">
      <use data-characterId="32" height="12.0" transform="matrix(1.0, 0.0, 0.0, 1.0, -34.0, -6.0)" width="68.0" xlink:href="#shape1"/>
    </g>
    <g id="button4" transform="matrix(1.0, 0.0, 0.0, 1.0, 34.0, 6.0)">
      <use data-characterId="32" height="12.0" transform="matrix(1.0, 0.0, 0.0, 1.0, -34.0, -6.0)" width="68.0" xlink:href="#shape1"/>
    </g>
    <g id="button5" transform="matrix(1.0, 0.0, 0.0, 1.0, 34.0, 6.0)">
      <use data-characterId="32" height="12.0" transform="matrix(1.0, 0.0, 0.0, 1.0, -34.0, -6.0)" width="68.0" xlink:href="#shape1"/>
    </g>
    <g id="button6" transform="matrix(1.0, 0.0, 0.0, 1.0, 34.0, 6.0)">
      <use data-characterId="32" height="12.0" transform="matrix(1.0, 0.0, 0.0, 1.0, -34.0, -6.0)" width="68.0" xlink:href="#shape1"/>
    </g>
    <g id="button7" transform="matrix(1.0, 0.0, 0.0, 1.0, 34.0, 6.0)">
      <use data-characterId="32" height="12.0" transform="matrix(1.0, 0.0, 0.0, 1.0, -34.0, -6.0)" width="68.0" xlink:href="#shape1"/>
    </g>
  </defs>
</svg>
