<?xml version="1.0" encoding="UTF-8" standalone="no"?>
<svg xmlns:xlink="http://www.w3.org/1999/xlink" height="10.0px" width="10.0px" xmlns="http://www.w3.org/2000/svg">
  <g transform="matrix(1.0, 0.0, 0.0, 1.0, 5.0, 5.0)">
    <path d="M-1.55 -3.4 Q-1.1 -3.35 -0.9 -3.05 -0.7 -2.7 -0.9 -2.3 L-1.5 -1.65 Q-1.95 -1.4 -2.35 -1.45 -2.8 -1.5 -3.0 -1.8 -3.2 -2.15 -3.0 -2.55 L-2.4 -3.2 -1.55 -3.4" fill="#ffffff" fill-rule="evenodd" stroke="none"/>
    <path d="M3.55 3.55 Q2.05 5.0 0.0 5.0 -2.1 5.0 -3.55 3.55 -5.0 2.1 -5.0 0.0 -5.0 -2.05 -3.55 -3.5 -2.1 -5.0 0.0 -5.0 2.05 -5.0 3.55 -3.5 5.0 -2.05 5.0 0.0 5.0 2.1 3.55 3.55 M3.3 3.35 Q4.65 1.95 4.7 0.0 4.65 -1.95 3.3 -3.3 1.9 -4.65 0.0 -4.65 -1.95 -4.65 -3.3 -3.3 -4.7 -1.95 -4.7 0.0 -4.7 1.95 -3.3 3.35 -1.95 4.7 0.0 4.7 1.9 4.7 3.3 3.35" fill="#ffff99" fill-rule="evenodd" stroke="none"/>
    <path d="M2.7 -3.2 Q3.95 -2.0 3.95 -0.25 3.95 1.5 2.7 2.75 1.45 3.95 -0.25 3.95 -2.05 3.95 -3.25 2.75 L-4.2 1.4 Q-3.9 2.35 -3.1 3.1 -1.85 4.4 0.0 4.4 1.8 4.4 3.1 3.1 4.35 1.8 4.35 0.0 4.35 -1.8 3.1 -3.05 2.3 -3.85 1.35 -4.15 L2.7 -3.2 M3.3 3.35 Q1.9 4.7 0.0 4.7 -1.95 4.7 -3.3 3.35 -4.7 1.95 -4.7 0.0 -4.7 -1.95 -3.3 -3.3 -1.95 -4.65 0.0 -4.65 1.9 -4.65 3.3 -3.3 4.65 -1.95 4.7 0.0 4.65 1.95 3.3 3.35 M-1.55 -3.4 L-2.4 -3.2 -3.0 -2.55 Q-3.2 -2.15 -3.0 -1.8 -2.8 -1.5 -2.35 -1.45 -1.95 -1.4 -1.5 -1.65 L-0.9 -2.3 Q-0.7 -2.7 -0.9 -3.05 -1.1 -3.35 -1.55 -3.4" fill="#ffff33" fill-rule="evenodd" stroke="none"/>
    <path d="M2.7 -3.2 L1.35 -4.15 Q2.3 -3.85 3.1 -3.05 4.35 -1.8 4.35 0.0 4.35 1.8 3.1 3.1 1.8 4.4 0.0 4.4 -1.85 4.4 -3.1 3.1 -3.9 2.35 -4.2 1.4 L-3.25 2.75 Q-2.05 3.95 -0.25 3.95 1.45 3.95 2.7 2.75 3.95 1.5 3.95 -0.25 3.95 -2.0 2.7 -3.2" fill="#ffcc33" fill-rule="evenodd" stroke="none"/>
  </g>
</svg>
