<?xml version="1.0" encoding="UTF-8" standalone="no"?>
<svg xmlns:xlink="http://www.w3.org/1999/xlink" height="124.95px" width="81.8px" xmlns="http://www.w3.org/2000/svg">
  <g transform="matrix(1.0, 0.0, 0.0, 1.0, 51.1, 46.95)">
    <path d="M30.7 -46.95 L30.7 -46.8 30.6 -46.8 30.7 -46.95 M30.7 77.9 L30.7 78.0 5.8 78.0 5.8 77.95 15.6 77.95 30.55 77.9 30.7 78.0 30.6 77.9 30.7 77.9 M-35.5 78.0 L-51.05 78.0 -50.85 77.9 -35.5 77.9 -35.5 78.0" fill="#3366ff" fill-rule="evenodd" stroke="none"/>
    <path d="M-51.05 78.0 L-51.1 78.0 -51.1 77.9 -51.0 77.9 -51.05 78.0 M-51.1 -46.8 L-51.0 -46.8 -51.0 -46.75 -51.1 -46.8 M30.5 -46.95 L30.7 -46.95 30.5 -46.8 30.5 -46.95 M30.6 -46.8 L30.7 -46.8 30.65 -46.75 30.6 -46.8 M25.45 73.0 L-35.5 73.0 -45.85 73.0 -45.85 -41.9 25.5 -41.9 25.45 73.0" fill="#663300" fill-rule="evenodd" stroke="none"/>
    <path d="M30.7 -46.6 L30.7 77.65 27.9 73.9 27.9 -42.85 30.7 -46.6 M5.8 78.0 L-35.5 78.0 -35.5 77.9 -50.85 77.9 -51.05 78.0 -51.0 77.9 -51.1 77.9 -47.2 74.95 26.8 74.95 30.7 77.9 30.6 77.9 30.7 78.0 30.55 77.9 15.6 77.95 5.8 77.95 5.8 78.0 M30.7 -46.95 L30.6 -46.8 30.5 -46.8 30.7 -46.95 M-51.0 -46.85 L-50.9 -46.8 -50.95 -46.8 -51.0 -46.85" fill="#cc6600" fill-rule="evenodd" stroke="none"/>
    <path d="M30.7 -46.8 L30.7 -46.6 27.9 -42.85 27.9 73.9 30.7 77.65 30.7 77.9 26.8 74.95 -47.2 74.95 -51.1 77.9 -51.1 77.65 -48.3 73.9 -48.3 -42.85 -51.1 -46.6 -51.1 -46.8 -51.0 -46.75 -47.2 -43.9 26.8 -43.9 30.65 -46.75 30.7 -46.8 M26.8 73.9 L26.8 -42.85 -47.2 -42.85 -47.2 73.9 26.8 73.9" fill="#993300" fill-rule="evenodd" stroke="none"/>
    <path d="M-51.1 77.65 L-51.1 -46.6 -48.3 -42.85 -48.3 73.9 -51.1 77.65 M-51.0 -46.8 L-51.0 -46.85 -35.5 -46.85 -35.5 -46.9 -13.8 -46.9 0.9 -46.9 2.15 -46.9 30.5 -46.95 30.5 -46.8 30.6 -46.8 30.65 -46.75 26.8 -43.9 -47.2 -43.9 -51.0 -46.75 -51.0 -46.8 M25.65 57.7 L25.7 57.7 25.7 73.1 -46.1 73.1 -46.1 57.7 -46.05 57.7 -46.05 -42.0 25.65 -42.0 25.65 57.7 M25.45 73.0 L25.5 -41.9 -45.85 -41.9 -45.85 73.0 -35.5 73.0 25.45 73.0 M-51.0 -46.85 L-50.95 -46.8 -50.9 -46.8 -51.0 -46.85" fill="#330000" fill-rule="evenodd" stroke="none"/>
    <path d="M25.65 57.7 L25.65 -42.0 -46.05 -42.0 -46.05 57.7 -46.1 57.7 -46.1 73.1 25.7 73.1 25.7 57.7 25.65 57.7 M26.8 73.9 L-47.2 73.9 -47.2 -42.85 26.8 -42.85 26.8 73.9" fill="#000000" fill-rule="evenodd" stroke="none"/>
  </g>
</svg>
