<?xml version="1.0" encoding="UTF-8" standalone="no"?>
<svg xmlns:xlink="http://www.w3.org/1999/xlink" height="45.15px" width="108.3px" xmlns="http://www.w3.org/2000/svg">
  <g transform="matrix(1.0, 0.0, 0.0, 1.0, 73.35, 22.75)">
    <path d="M26.7 -14.45 L26.65 -14.45 Q22.0 -19.0 15.7 -19.0 L-54.1 -19.0 Q-60.4 -19.0 -65.05 -14.45 -69.6 -9.8 -69.6 -3.5 L-69.6 3.55 -69.45 5.25 Q-68.85 10.35 -65.05 14.1 L-66.8 15.9 Q-71.35 11.35 -72.0 5.25 L-72.1 3.55 -72.1 -3.5 Q-72.1 -10.9 -66.8 -16.2 -61.5 -21.5 -54.1 -21.5 L15.7 -21.5 Q23.1 -21.5 28.4 -16.2 L26.7 -14.45" fill="#ffffff" fill-rule="evenodd" stroke="none"/>
    <path d="M26.7 -14.45 L28.4 -16.2 Q33.7 -11.0 33.7 -3.5 L33.7 3.55 33.6 5.25 Q32.95 11.45 28.4 15.9 23.15 21.15 15.7 21.15 L-54.1 21.15 Q-61.55 21.15 -66.8 15.9 L-65.05 14.1 Q-60.5 18.65 -54.1 18.65 L15.7 18.65 Q22.05 18.65 26.6 14.2 L26.7 14.1 Q30.45 10.4 31.1 5.25 L31.2 3.55 31.2 -3.5 Q31.2 -9.85 26.75 -14.35 L26.7 -14.45" fill="#666666" fill-rule="evenodd" stroke="none"/>
    <path d="M-65.05 14.1 Q-68.85 10.35 -69.45 5.25 L-69.6 3.55 -69.6 -3.5 Q-69.6 -9.8 -65.05 -14.45 -60.4 -19.0 -54.1 -19.0 L15.7 -19.0 Q22.0 -19.0 26.65 -14.45 L26.7 -14.45 26.75 -14.35 Q31.2 -9.85 31.2 -3.5 L31.2 3.55 31.1 5.25 Q30.45 10.4 26.7 14.1 L26.6 14.2 Q22.05 18.65 15.7 18.65 L-54.1 18.65 Q-60.5 18.65 -65.05 14.1 M-62.9 -12.35 Q-66.6 -8.65 -66.6 -3.5 L-66.6 3.55 -66.45 5.25 Q-65.85 9.1 -62.9 12.0 -59.25 15.65 -54.1 15.65 L15.7 15.65 Q20.85 15.65 24.55 12.0 27.45 9.1 28.05 5.25 L28.2 3.55 28.2 -3.5 Q28.2 -8.65 24.55 -12.35 20.85 -16.0 15.7 -16.0 L-54.1 -16.0 Q-59.25 -16.0 -62.9 -12.35" fill="#cccccc" fill-rule="evenodd" stroke="none"/>
    <path d="M-62.9 -12.35 Q-59.25 -16.0 -54.1 -16.0 L15.7 -16.0 Q20.85 -16.0 24.55 -12.35 28.2 -8.65 28.2 -3.5 L28.2 3.55 28.05 5.25 Q27.45 9.1 24.55 12.0 20.85 15.65 15.7 15.65 L-54.1 15.65 Q-59.25 15.65 -62.9 12.0 -65.85 9.1 -66.45 5.25 L-66.6 3.55 -66.6 -3.5 Q-66.6 -8.65 -62.9 -12.35" fill="#999999" fill-rule="evenodd" stroke="none"/>
    <path d="M28.4 -16.2 Q23.1 -21.5 15.7 -21.5 L-54.1 -21.5 Q-61.5 -21.5 -66.8 -16.2 -72.1 -10.9 -72.1 -3.5 L-72.1 3.55 -72.0 5.25 Q-71.35 11.35 -66.8 15.9 -61.55 21.15 -54.1 21.15 L15.7 21.15 Q23.15 21.15 28.4 15.9 32.95 11.45 33.6 5.25 L33.7 3.55 33.7 -3.5 Q33.7 -11.0 28.4 -16.2 M-67.65 -17.05 Q-62.0 -22.75 -54.1 -22.75 L15.7 -22.75 Q23.6 -22.75 29.3 -17.05 34.95 -11.5 34.95 -3.5 L34.95 5.1 34.95 5.25 34.85 5.25 Q34.2 11.95 29.3 16.8 23.65 22.4 15.7 22.4 L-54.1 22.4 Q-62.05 22.4 -67.65 16.8 -72.6 11.85 -73.25 5.25 L-73.35 5.25 -73.35 5.1 -73.35 -3.5 Q-73.35 -11.4 -67.65 -17.05" fill="#333333" fill-rule="evenodd" stroke="none"/>
  </g>
</svg>
