<?xml version="1.0" encoding="UTF-8" standalone="no"?>
<svg xmlns:xlink="http://www.w3.org/1999/xlink" height="247.9px" width="57.25px" xmlns="http://www.w3.org/2000/svg">
  <g transform="matrix(1.0, 0.0, 0.0, 1.0, 28.8, 123.9)">
    <path d="M28.45 -123.8 L28.45 -123.6 25.65 -119.85 25.65 119.9 28.45 123.65 28.45 123.9 24.55 120.95 -24.9 120.95 -28.8 123.9 -28.8 123.65 -26.0 119.9 -26.0 -119.85 -28.8 -123.6 -28.8 -123.8 -24.9 -120.9 24.55 -120.9 28.45 -123.8 M24.55 119.9 L24.55 -119.85 -24.9 -119.85 -24.9 119.9 24.55 119.9" fill="#993300" fill-rule="evenodd" stroke="none"/>
    <path d="M23.45 119.1 L23.4 -119.0 -23.75 -119.0 -23.8 119.1 23.45 119.1 M24.55 119.9 L-24.9 119.9 -24.9 -119.85 24.55 -119.85 24.55 119.9" fill="#000000" fill-rule="evenodd" stroke="none"/>
    <path d="M-28.8 123.9 L-24.9 120.95 24.55 120.95 28.45 123.9 -0.2 124.0 -4.2 124.0 -13.8 123.95 -28.8 123.9 M28.45 123.65 L25.65 119.9 25.65 -119.85 28.45 -123.6 28.45 123.65" fill="#cc6600" fill-rule="evenodd" stroke="none"/>
    <path d="M28.45 -123.8 L24.55 -120.9 -24.9 -120.9 -28.8 -123.8 -13.8 -123.85 -4.2 -123.9 -3.65 -123.9 -0.2 -123.9 0.35 -123.9 28.45 -123.8 M-28.8 -123.6 L-26.0 -119.85 -26.0 119.9 -28.8 123.65 -28.8 -123.6" fill="#330000" fill-rule="evenodd" stroke="none"/>
  </g>
</svg>
