<?xml version="1.0" encoding="UTF-8" standalone="no"?>
<svg xmlns:xlink="http://www.w3.org/1999/xlink" height="72.55px" width="507.5px" xmlns="http://www.w3.org/2000/svg">
  <g transform="matrix(1.0, 0.0, 0.0, 1.0, 253.75, 36.25)">
    <path d="M-253.7 36.3 L-249.5 33.15 249.55 33.15 253.75 36.3 250.6 32.1 250.6 -32.05 253.75 -36.25 253.75 36.3 -253.7 36.3" fill="#3366ff" fill-rule="evenodd" stroke="none"/>
    <path d="M253.75 -36.25 L249.55 -33.1 -249.5 -33.1 -253.65 -36.15 -250.6 -32.05 -250.6 32.1 -253.7 36.3 -253.75 36.3 -253.65 -36.15 -142.9 -36.2 -142.9 -36.15 253.75 -36.25" fill="#663300" fill-rule="evenodd" stroke="none"/>
    <path d="M-253.7 36.3 L-250.6 32.1 -250.6 -32.05 -253.65 -36.15 -249.5 -33.1 249.55 -33.1 253.75 -36.25 250.6 -32.05 250.6 32.1 253.75 36.3 249.55 33.15 -249.5 33.15 -253.7 36.3 M-249.5 -32.05 L-249.5 32.1 249.55 32.1 249.55 -32.05 -249.5 -32.05" fill="#cc6600" fill-rule="evenodd" stroke="none"/>
    <path d="M-249.5 -32.05 L249.55 -32.05 249.55 32.1 -249.5 32.1 -249.5 -32.05 M-248.5 -31.2 L-248.5 31.3 248.5 31.3 248.55 -31.2 -248.5 -31.2" fill="#330000" fill-rule="evenodd" stroke="none"/>
    <path d="M-253.75 -35.9 L-253.75 -36.1 -249.85 -33.2 -180.15 -33.2 -180.15 -32.15 -249.85 -32.15 -249.85 32.2 -180.15 32.2 -180.15 33.25 -249.85 33.25 -253.75 36.2 -253.75 35.95 -250.95 32.2 -250.95 -32.15 -253.75 -35.9" fill="#993300" fill-rule="evenodd" stroke="none"/>
    <path d="M-253.75 -35.9 L-250.95 -32.15 -250.95 32.2 -253.75 35.95 -253.75 -35.9 M-180.15 -33.2 L-249.85 -33.2 -253.75 -36.1 -217.0 -36.15 -180.15 -36.15 -180.15 -33.2" fill="#663300" fill-rule="evenodd" stroke="none"/>
    <path d="M-180.15 32.2 L-249.85 32.2 -249.85 -32.15 -180.15 -32.15 -180.15 -31.3 -248.7 -31.3 -248.7 11.65 -248.75 11.65 -248.75 31.4 -180.15 31.4 -180.15 32.2" fill="#000000" fill-rule="evenodd" stroke="none"/>
    <path d="M-253.75 36.2 L-249.85 33.25 -180.15 33.25 -180.15 36.25 -217.0 36.25 -253.75 36.2" fill="#cc6600" fill-rule="evenodd" stroke="none"/>
    <path d="M-198.75 -33.2 L-198.75 -36.15 -5.6 -36.2 5.8 -36.2 18.6 -36.2 18.6 -36.15 161.6 -36.2 173.0 -36.2 225.65 -36.2 230.6 -36.2 231.05 -36.2 232.25 -36.2 253.75 -36.1 249.85 -33.2 -198.75 -33.2" fill="#663300" fill-rule="evenodd" stroke="none"/>
    <path d="M253.75 -36.1 L253.75 -35.9 250.95 -32.15 250.95 32.2 253.75 35.95 253.75 36.2 249.85 33.25 -198.75 33.25 -198.75 32.2 249.85 32.2 249.85 -32.15 -198.75 -32.15 -198.75 -33.2 249.85 -33.2 253.75 -36.1" fill="#993300" fill-rule="evenodd" stroke="none"/>
    <path d="M253.75 -35.9 L253.75 35.95 250.95 32.2 250.95 -32.15 253.75 -35.9 M253.75 36.2 L232.25 36.25 232.25 36.3 161.6 36.3 18.6 36.25 18.6 36.3 -5.6 36.3 -198.75 36.25 -198.75 33.25 249.85 33.25 253.75 36.2" fill="#cc6600" fill-rule="evenodd" stroke="none"/>
    <path d="M-198.75 32.2 L-198.75 31.4 248.75 31.4 248.75 11.65 248.7 11.65 248.7 -31.3 -198.75 -31.3 -198.75 -32.15 249.85 -32.15 249.85 32.2 -198.75 32.2" fill="#000000" fill-rule="evenodd" stroke="none"/>
  </g>
</svg>
