<?xml version="1.0" encoding="UTF-8" standalone="no"?>
<svg xmlns:xlink="http://www.w3.org/1999/xlink" height="247.9px" width="328.5px" xmlns="http://www.w3.org/2000/svg">
  <g transform="matrix(1.0, 0.0, 0.0, 1.0, 164.25, 123.9)">
    <use data-characterId="80" height="247.9" transform="matrix(1.0, 0.0, 0.0, 1.0, -164.25, -123.9)" width="328.5" xlink:href="#shape0"/>
  </g>
  <defs>
    <g id="shape0" transform="matrix(1.0, 0.0, 0.0, 1.0, 164.25, 123.9)">
      <path d="M164.25 -123.8 L164.25 -123.6 161.45 -119.85 161.45 119.9 164.25 123.65 164.25 123.9 160.35 120.95 -160.35 120.95 -164.25 123.9 -164.25 123.65 -161.45 119.9 -161.45 -119.85 -164.25 -123.6 -164.25 -123.8 -160.35 -120.9 160.35 -120.9 164.25 -123.8 M160.35 119.9 L160.35 -119.85 -160.35 -119.85 -160.35 119.9 160.35 119.9" fill="#993300" fill-rule="evenodd" stroke="none"/>
      <path d="M164.25 -123.6 L164.25 123.65 161.45 119.9 161.45 -119.85 164.25 -123.6 M164.25 123.9 L142.75 123.95 142.75 124.0 72.1 124.0 -127.5 123.95 -164.25 123.9 -160.35 120.95 160.35 120.95 164.25 123.9" fill="#cc6600" fill-rule="evenodd" stroke="none"/>
      <path d="M159.25 119.1 L159.2 -119.0 -159.2 -119.0 -159.25 119.1 159.25 119.1 M160.35 119.9 L-160.35 119.9 -160.35 -119.85 160.35 -119.85 160.35 119.9" fill="#000000" fill-rule="evenodd" stroke="none"/>
      <path d="M-164.25 -123.8 L-127.5 -123.85 72.1 -123.9 83.5 -123.9 136.15 -123.9 141.1 -123.9 141.55 -123.9 142.75 -123.9 164.25 -123.8 160.35 -120.9 -160.35 -120.9 -164.25 -123.8 M-164.25 123.65 L-164.25 -123.6 -161.45 -119.85 -161.45 119.9 -164.25 123.65" fill="#330000" fill-rule="evenodd" stroke="none"/>
    </g>
  </defs>
</svg>
